<?xml version="1.0" encoding="utf-8"?>
<!-- Generator: Adobe Illustrator 16.0.0, SVG Export Plug-In . SVG Version: 6.00 Build 0)  -->
<!DOCTYPE svg PUBLIC "-//W3C//DTD SVG 1.1//EN" "http://www.w3.org/Graphics/SVG/1.1/DTD/svg11.dtd">
<svg version="1.1" id="Capa_1" xmlns="http://www.w3.org/2000/svg" xmlns:xlink="http://www.w3.org/1999/xlink" x="0px" y="0px"
	 width="1455.901px" height="412.465px" viewBox="0 0 1455.901 412.465" enable-background="new 0 0 1455.901 412.465"
	 xml:space="preserve">
<g>
	<g>
		<g opacity="0.8">
			
				<image overflow="visible" enable-background="new    " width="1621" height="1621" xlink:href="DEE0F291.png"  transform="matrix(0.1982 0 0 0.1982 54.6743 38.9014)">
			</image>
		</g>
		<g>
			
				<radialGradient id="SVGID_1_" cx="-28.7124" cy="494.7246" r="123.3606" gradientTransform="matrix(1 0 0 -1 244 690.9297)" gradientUnits="userSpaceOnUse">
				<stop  offset="0" style="stop-color:#ADD8F5"/>
				<stop  offset="0.0237" style="stop-color:#A7D4F3"/>
				<stop  offset="0.2757" style="stop-color:#72AADC"/>
				<stop  offset="0.4955" style="stop-color:#458DCC"/>
				<stop  offset="0.6727" style="stop-color:#237DC1"/>
				<stop  offset="0.7849" style="stop-color:#0E77BD"/>
				<stop  offset="0.8354" style="stop-color:#1075BA"/>
				<stop  offset="0.8778" style="stop-color:#146DAE"/>
				<stop  offset="0.9173" style="stop-color:#1A609C"/>
				<stop  offset="0.9551" style="stop-color:#1E5086"/>
				<stop  offset="0.9914" style="stop-color:#1F3E6C"/>
				<stop  offset="1" style="stop-color:#1E3966"/>
			</radialGradient>
			<path fill="url(#SVGID_1_)" d="M215.288,319.566c-68.021,0-123.361-55.339-123.361-123.361
				c0-68.021,55.34-123.361,123.361-123.361c68.022,0,123.361,55.339,123.361,123.361
				C338.648,264.228,283.31,319.566,215.288,319.566z"/>
			<path fill="#1E3966" d="M215.288,74.5c67.217,0,121.707,54.489,121.707,121.706c0,67.216-54.489,121.707-121.707,121.707
				c-67.216,0-121.706-54.491-121.706-121.707C93.582,128.989,148.072,74.5,215.288,74.5 M215.288,71.189
				c-33.393,0-64.787,13.004-88.399,36.616c-23.612,23.613-36.616,55.007-36.616,88.4s13.004,64.787,36.616,88.399
				c23.613,23.613,55.007,36.617,88.399,36.617c33.393,0,64.788-13.004,88.401-36.617c23.611-23.612,36.615-55.006,36.615-88.399
				c0-33.393-13.004-64.787-36.615-88.4C280.076,84.193,248.681,71.189,215.288,71.189L215.288,71.189z"/>
		</g>
		<g>
			
				<image overflow="visible" enable-background="new    " width="1808" height="1854" xlink:href="DEE0F293.png"  transform="matrix(0.1983 0 0 0.1979 37.5957 14.4648)">
			</image>
		</g>
		
			<radialGradient id="SVGID_2_" cx="-28.6021" cy="476.7881" r="147.8726" gradientTransform="matrix(1 0 0 -1.3288 244 846.9111)" gradientUnits="userSpaceOnUse">
			<stop  offset="0" style="stop-color:#FEDA90"/>
			<stop  offset="0.0837" style="stop-color:#FED989"/>
			<stop  offset="0.2155" style="stop-color:#FED673"/>
			<stop  offset="0.378" style="stop-color:#FFD24B"/>
			<stop  offset="0.4974" style="stop-color:#FFCF1C"/>
			<stop  offset="0.5985" style="stop-color:#E7A22F"/>
			<stop  offset="0.679" style="stop-color:#D88533"/>
			<stop  offset="0.7225" style="stop-color:#D37A34"/>
			<stop  offset="0.725" style="stop-color:#D27834"/>
			<stop  offset="0.7729" style="stop-color:#C55D34"/>
			<stop  offset="0.8229" style="stop-color:#BB4833"/>
			<stop  offset="0.8754" style="stop-color:#B53931"/>
			<stop  offset="0.932" style="stop-color:#B13031"/>
			<stop  offset="1" style="stop-color:#B02D30"/>
		</radialGradient>
		<path fill="url(#SVGID_2_)" d="M206.744,148.252c0,0,6.311-101.387,9.072-104.542c2.763-3.157,8.285,104.542,8.285,104.542
			s112.075,1.321,133.736,9.862c-24.307,9.154-132.947,9.468-132.947,9.468s-2.712,173.961-9.862,171.21
			c-5.128-1.972-8.283-171.212-8.283-171.212s-137.075-2.527-135.992-8.606C78.846,154.465,168.083,147.86,206.744,148.252z"/>
	</g>
	<g>
		<g display="none">
			<g display="inline">
				<path fill="#E30613" d="M551.387,303.195c3.442,0,6.307,1.131,8.596,3.391s3.433,5.115,3.433,8.568
					c0,4.207-1.45,7.742-4.354,10.604c-2.902,2.861-6.521,4.295-10.855,4.295c-3.687,0-6.635-1.104-8.849-3.305
					s-3.319-5.082-3.319-8.639c0-2.748,0.662-5.268,1.989-7.563s3.164-4.094,5.511-5.398
					C545.885,303.848,548.501,303.195,551.387,303.195z M551.335,305.594c-2.445,0-4.627,0.533-6.545,1.602
					c-1.918,1.066-3.437,2.58-4.555,4.541c-1.119,1.959-1.678,4.047-1.678,6.262c0,1.879,0.406,3.564,1.217,5.057
					c0.811,1.49,1.934,2.629,3.364,3.418s3.114,1.184,5.05,1.184c2.295,0,4.421-0.555,6.38-1.662
					c1.96-1.107,3.497-2.645,4.615-4.609c1.119-1.967,1.679-4.092,1.679-6.377c0-3.027-1.062-5.428-3.182-7.203
					C555.917,306.33,553.804,305.594,551.335,305.594z"/>
				<path fill="#E30613" d="M568.981,310.496h2.333l-0.389,2.943c1.922-2.287,4.159-3.432,6.711-3.432
					c1.958,0,3.536,0.602,4.735,1.801c1.201,1.197,1.801,2.813,1.801,4.84c0,0.811-0.129,2.172-0.389,4.086l-1.174,8.676h-2.385
					l1.173-8.674c0.251-1.855,0.376-3.225,0.376-4.107c0-1.324-0.4-2.395-1.205-3.209c-0.803-0.813-1.855-1.221-3.158-1.221
					c-1.281,0-2.471,0.33-3.57,0.992c-1.1,0.66-1.952,1.555-2.557,2.686c-0.605,1.129-1.07,2.916-1.394,5.359l-1.083,8.174h-2.385
					L568.981,310.496z"/>
				<path fill="#E30613" d="M591.212,303.195h2.367l-3.527,26.215h-2.387L591.212,303.195z"/>
				<path fill="#E30613" d="M597.352,310.496h2.298l-2.47,18.914h-2.386L597.352,310.496z M599.261,302.709
					c0.533,0,0.992,0.191,1.373,0.572c0.383,0.383,0.574,0.842,0.574,1.375c0,0.545-0.191,1.004-0.574,1.381
					c-0.381,0.377-0.84,0.564-1.373,0.564c-0.545,0-1.006-0.189-1.381-0.564c-0.377-0.377-0.565-0.836-0.565-1.381
					c0-0.533,0.188-0.992,0.565-1.375C598.255,302.9,598.716,302.709,599.261,302.709z"/>
				<path fill="#E30613" d="M604.948,310.496h2.334l-0.391,2.943c1.923-2.287,4.16-3.432,6.712-3.432
					c1.957,0,3.536,0.602,4.736,1.801c1.2,1.197,1.801,2.813,1.801,4.84c0,0.811-0.13,2.172-0.39,4.086l-1.174,8.676h-2.385
					l1.174-8.674c0.25-1.855,0.375-3.225,0.375-4.107c0-1.324-0.4-2.395-1.203-3.209c-0.804-0.813-1.856-1.221-3.16-1.221
					c-1.279,0-2.471,0.33-3.568,0.992c-1.102,0.66-1.952,1.555-2.559,2.686c-0.604,1.129-1.068,2.916-1.394,5.359l-1.083,8.174
					h-2.385L604.948,310.496z"/>
				<path fill="#E30613" d="M643.659,320.439h-16.861c-0.035,2.248,0.55,4.016,1.756,5.303c1.205,1.285,2.811,1.93,4.814,1.93
					c1.332,0,2.566-0.273,3.703-0.818c1.135-0.543,2.073-1.309,2.815-2.293l1.808,1.477c-0.914,1.17-2.111,2.107-3.59,2.807
					c-1.479,0.701-3.074,1.055-4.789,1.055c-2.967,0-5.193-0.918-6.684-2.756c-1.489-1.836-2.234-3.902-2.234-6.197
					c0-1.877,0.502-3.688,1.504-5.424c1.004-1.738,2.344-3.092,4.024-4.061c1.681-0.967,3.5-1.451,5.459-1.451
					c2.422,0,4.427,0.82,6.015,2.459c1.588,1.643,2.381,3.73,2.381,6.27C643.78,319.199,643.741,319.768,643.659,320.439z
					 M641.434,318.318c-0.069-1.779-0.678-3.221-1.825-4.324c-1.146-1.104-2.59-1.654-4.328-1.654c-1.89,0-3.556,0.531-4.998,1.594
					c-1.441,1.063-2.466,2.525-3.067,4.385H641.434L641.434,318.318z"/>
			</g>
		</g>
	</g>
</g>
<g>
	<g>
		<g>
			<path fill="#164D69" d="M677.697,265.578h4.204v42.085h-4.204V265.578z"/>
			<path fill="#164D69" d="M717.722,276.536h4.005v24.803c0,4.368-0.383,7.562-1.145,9.582c-1.047,2.86-2.87,5.065-5.464,6.608
				c-2.594,1.546-5.712,2.317-9.354,2.317c-2.671,0-5.069-0.376-7.193-1.132c-2.128-0.755-3.86-1.771-5.194-3.042
				s-2.565-3.132-3.69-5.583h4.35c1.183,2.061,2.709,3.587,4.583,4.577c1.871,0.993,4.191,1.486,6.959,1.486
				c2.732,0,5.037-0.508,6.917-1.523c1.881-1.019,3.224-2.297,4.024-3.835c0.801-1.539,1.202-4.027,1.202-7.457v-1.604
				c-1.507,1.909-3.35,3.372-5.525,4.394c-2.176,1.02-4.487,1.53-6.93,1.53c-2.864,0-5.558-0.71-8.078-2.131
				c-2.52-1.419-4.468-3.332-5.84-5.736c-1.376-2.401-2.063-5.043-2.063-7.923c0-2.88,0.717-5.564,2.15-8.055
				c1.431-2.489,3.41-4.458,5.939-5.91c2.53-1.449,5.198-2.171,8.004-2.171c2.33,0,4.503,0.482,6.516,1.443
				c2.015,0.964,3.957,2.552,5.827,4.763V276.536L717.722,276.536z M705.906,279.596c-2.27,0-4.378,0.55-6.322,1.646
				c-1.945,1.099-3.472,2.613-4.577,4.548c-1.109,1.939-1.662,4.03-1.662,6.28c0,3.414,1.145,6.236,3.433,8.47
				c2.292,2.229,5.256,3.345,8.897,3.345c3.681,0,6.644-1.105,8.884-3.32c2.24-2.212,3.359-5.121,3.359-8.724
				c0-2.348-0.515-4.439-1.543-6.281c-1.031-1.839-2.491-3.295-4.378-4.36C710.11,280.133,708.079,279.596,705.906,279.596z"/>
			<path fill="#164D69" d="M729.708,264.521h4.005v43.142h-4.005V264.521z"/>
			<path fill="#164D69" d="M768.244,297.335l3.375,1.774c-1.109,2.172-2.389,3.928-3.838,5.262
				c-1.453,1.338-3.086,2.354-4.898,3.048c-1.813,0.697-3.867,1.044-6.156,1.044c-5.078,0-9.048-1.664-11.912-4.991
				c-2.863-3.328-4.297-7.091-4.297-11.284c0-3.951,1.212-7.467,3.635-10.559c3.076-3.93,7.188-5.892,12.344-5.892
				c5.307,0,9.546,2.012,12.712,6.036c2.253,2.842,3.397,6.39,3.437,10.643h-28.006c0.073,3.616,1.23,6.58,3.465,8.891
				c2.233,2.31,4.991,3.467,8.276,3.467c1.585,0,3.128-0.276,4.626-0.826c1.5-0.553,2.773-1.281,3.824-2.195
				C765.885,300.839,767.02,299.367,768.244,297.335z M768.244,288.953c-0.537-2.139-1.314-3.844-2.337-5.121
				c-1.022-1.279-2.372-2.308-4.054-3.092c-1.678-0.783-3.445-1.17-5.297-1.17c-3.057,0-5.683,0.98-7.878,2.944
				c-1.604,1.43-2.819,3.577-3.639,6.438H768.244L768.244,288.953z"/>
			<path fill="#164D69" d="M795.765,279.94l-2.575,2.661c-2.144-2.08-4.236-3.118-6.28-3.118c-1.302,0-2.414,0.428-3.343,1.284
				c-0.929,0.858-1.392,1.861-1.392,3.005c0,1.012,0.382,1.974,1.147,2.89c0.765,0.935,2.369,2.031,4.818,3.288
				c2.979,1.546,5.004,3.034,6.074,4.464c1.055,1.45,1.578,3.08,1.578,4.894c0,2.556-0.896,4.718-2.693,6.492
				c-1.797,1.773-4.04,2.661-6.733,2.661c-1.794,0-3.511-0.393-5.144-1.174c-1.633-0.78-2.982-1.857-4.053-3.233l2.52-2.86
				c2.045,2.308,4.215,3.463,6.506,3.463c1.607,0,2.974-0.516,4.102-1.544c1.129-1.032,1.694-2.244,1.694-3.636
				c0-1.144-0.373-2.161-1.119-3.058c-0.745-0.877-2.427-1.983-5.046-3.322c-2.81-1.447-4.722-2.877-5.734-4.29
				c-1.01-1.411-1.518-3.023-1.518-4.836c0-2.363,0.807-4.33,2.424-5.892c1.61-1.565,3.651-2.346,6.117-2.346
				C789.976,275.735,792.862,277.137,795.765,279.94z"/>
			<path fill="#164D69" d="M804.247,263.721c0.913,0,1.69,0.323,2.337,0.971c0.643,0.649,0.967,1.43,0.967,2.346
				c0,0.897-0.324,1.668-0.967,2.317c-0.646,0.648-1.424,0.974-2.337,0.974c-0.891,0-1.662-0.325-2.308-0.974
				c-0.643-0.651-0.968-1.42-0.968-2.317c0-0.916,0.325-1.697,0.968-2.346C802.582,264.045,803.354,263.721,804.247,263.721z
				 M802.258,276.536h4.005v31.127h-4.005V276.536z"/>
			<path fill="#164D69" d="M845.599,276.536v31.127h-3.947v-5.354c-1.678,2.041-3.564,3.579-5.65,4.607
				c-2.089,1.032-4.372,1.545-6.853,1.545c-4.404,0-8.168-1.598-11.285-4.793c-3.118-3.193-4.678-7.081-4.678-11.658
				c0-4.481,1.572-8.315,4.723-11.5c3.146-3.187,6.93-4.776,11.355-4.776c2.556,0,4.869,0.543,6.939,1.63
				c2.067,1.086,3.883,2.718,5.448,4.892v-5.721H845.599L845.599,276.536z M829.592,279.596c-2.228,0-4.285,0.55-6.172,1.646
				c-1.883,1.096-3.385,2.634-4.5,4.616c-1.115,1.98-1.671,4.077-1.671,6.284c0,2.192,0.56,4.288,1.685,6.287
				c1.125,2,2.635,3.558,4.528,4.673c1.896,1.115,3.928,1.672,6.101,1.672c2.192,0,4.269-0.553,6.229-1.658
				c1.961-1.106,3.472-2.601,4.528-4.487c1.059-1.886,1.585-4.01,1.585-6.371c0-3.602-1.186-6.613-3.558-9.029
				C835.979,280.808,833.06,279.596,829.592,279.596z"/>
			<path fill="#164D69" d="M910.685,273.389l-3.32,2.545c-1.832-2.381-4.027-4.191-6.596-5.419
				c-2.565-1.231-5.381-1.845-8.453-1.845c-3.356,0-6.464,0.804-9.325,2.417c-2.86,1.612-5.078,3.773-6.653,6.493
				c-1.575,2.718-2.359,5.773-2.359,9.17c0,5.128,1.759,9.411,5.278,12.844c3.52,3.434,7.958,5.149,13.316,5.149
				c5.895,0,10.826-2.308,14.792-6.923l3.317,2.517c-2.1,2.671-4.716,4.734-7.853,6.193c-3.138,1.46-6.641,2.189-10.514,2.189
				c-7.361,0-13.169-2.449-17.422-7.352c-3.567-4.142-5.349-9.135-5.349-14.991c0-6.162,2.16-11.343,6.48-15.547
				c4.32-4.208,9.729-6.31,16.235-6.31c3.928,0,7.476,0.779,10.642,2.33C906.069,268.407,908.66,270.586,910.685,273.389z"/>
			<path fill="#164D69" d="M916.949,276.536h4.092v4.548c1.219-1.79,2.508-3.131,3.86-4.018c1.356-0.887,2.768-1.331,4.236-1.331
				c1.106,0,2.289,0.354,3.546,1.058l-2.09,3.376c-0.839-0.361-1.543-0.543-2.118-0.543c-1.334,0-2.622,0.549-3.86,1.646
				c-1.24,1.096-2.186,2.798-2.832,5.107c-0.498,1.774-0.745,5.358-0.745,10.755v10.528h-4.092v-31.127H916.949z"/>
			<path fill="#164D69" d="M937.476,263.721c0.91,0,1.688,0.323,2.337,0.971c0.643,0.649,0.968,1.43,0.968,2.346
				c0,0.897-0.325,1.668-0.968,2.317c-0.649,0.649-1.427,0.974-2.337,0.974c-0.894,0-1.665-0.325-2.308-0.974
				c-0.646-0.651-0.968-1.42-0.968-2.317c0-0.916,0.321-1.697,0.968-2.346C935.811,264.045,936.582,263.721,937.476,263.721z
				 M935.486,276.536h4.005v31.127h-4.005V276.536z"/>
			<path fill="#164D69" d="M963.467,279.94l-2.575,2.661c-2.144-2.08-4.236-3.118-6.28-3.118c-1.302,0-2.418,0.428-3.343,1.284
				c-0.926,0.858-1.389,1.861-1.389,3.005c0,1.012,0.379,1.974,1.144,2.89c0.766,0.935,2.369,2.031,4.818,3.288
				c2.98,1.546,5.008,3.034,6.075,4.464c1.052,1.45,1.578,3.08,1.578,4.894c0,2.556-0.899,4.718-2.693,6.492
				c-1.797,1.773-4.04,2.661-6.733,2.661c-1.797,0-3.514-0.393-5.144-1.174c-1.633-0.78-2.985-1.857-4.056-3.233l2.517-2.86
				c2.047,2.308,4.217,3.463,6.509,3.463c1.607,0,2.973-0.516,4.102-1.544c1.128-1.032,1.69-2.244,1.69-3.636
				c0-1.144-0.373-2.161-1.118-3.058c-0.746-0.877-2.428-1.983-5.044-3.322c-2.81-1.447-4.722-2.877-5.734-4.29
				c-1.013-1.411-1.521-3.023-1.521-4.836c0-2.363,0.808-4.33,2.421-5.892c1.616-1.565,3.657-2.346,6.12-2.346
				C957.678,275.735,960.561,277.137,963.467,279.94z"/>
			<path fill="#164D69" d="M974.051,264.978h4.006v11.559h6.351v3.461h-6.351v27.666h-4.006v-27.666h-5.464v-3.461h5.464V264.978z"
				/>
			<path fill="#164D69" d="M991.804,263.721c0.909,0,1.69,0.323,2.337,0.971c0.643,0.649,0.967,1.43,0.967,2.346
				c0,0.897-0.324,1.668-0.967,2.317c-0.646,0.649-1.428,0.974-2.337,0.974c-0.894,0-1.662-0.325-2.308-0.974
				c-0.646-0.651-0.968-1.42-0.968-2.317c0-0.916,0.321-1.697,0.968-2.346C990.142,264.045,990.91,263.721,991.804,263.721z
				 M989.814,276.536h4.004v31.127h-4.004V276.536z"/>
			<path fill="#164D69" d="M1033.155,276.536v31.127h-3.947v-5.354c-1.678,2.041-3.562,3.579-5.65,4.607
				c-2.09,1.032-4.372,1.545-6.85,1.545c-4.407,0-8.171-1.598-11.286-4.793c-3.117-3.193-4.68-7.081-4.68-11.658
				c0-4.481,1.575-8.315,4.722-11.5c3.147-3.185,6.931-4.776,11.356-4.776c2.556,0,4.869,0.543,6.937,1.63
				c2.069,1.086,3.886,2.718,5.451,4.892v-5.721H1033.155L1033.155,276.536z M1017.148,279.596c-2.228,0-4.285,0.55-6.172,1.646
				s-3.388,2.634-4.5,4.616c-1.115,1.98-1.672,4.077-1.672,6.284c0,2.192,0.563,4.288,1.685,6.287c1.122,2,2.636,3.558,4.529,4.673
				c1.896,1.115,3.928,1.672,6.101,1.672c2.192,0,4.269-0.553,6.229-1.658c1.96-1.106,3.472-2.601,4.528-4.487
				c1.062-1.886,1.588-4.01,1.588-6.371c0-3.602-1.186-6.613-3.558-9.029C1023.535,280.808,1020.616,279.596,1017.148,279.596z"/>
			<path fill="#164D69" d="M1042.165,276.536h4.008v5.58c1.601-2.137,3.375-3.736,5.319-4.792c1.945-1.056,4.063-1.588,6.352-1.588
				c2.324,0,4.391,0.592,6.194,1.774s3.131,2.774,3.992,4.775c0.858,2.002,1.286,5.12,1.286,9.358v16.018h-4.006v-14.848
				c0-3.584-0.15-5.979-0.446-7.181c-0.463-2.057-1.354-3.605-2.671-4.648c-1.314-1.038-3.031-1.557-5.149-1.557
				c-2.424,0-4.593,0.799-6.509,2.404c-1.919,1.601-3.183,3.584-3.793,5.948c-0.379,1.546-0.572,4.368-0.572,8.468v11.418h-4.005
				V276.536L1042.165,276.536z"/>
			<path fill="#164D69" d="M1108.909,276.536v31.127h-3.946v-5.354c-1.679,2.041-3.563,3.579-5.651,4.607
				c-2.089,1.032-4.371,1.545-6.85,1.545c-4.407,0-8.171-1.598-11.288-4.793c-3.115-3.193-4.678-7.081-4.678-11.658
				c0-4.481,1.575-8.315,4.723-11.5c3.146-3.185,6.93-4.776,11.355-4.776c2.556,0,4.87,0.543,6.937,1.63
				c2.07,1.086,3.886,2.718,5.452,4.892v-5.721H1108.909L1108.909,276.536z M1092.902,279.596c-2.228,0-4.285,0.55-6.172,1.646
				c-1.883,1.096-3.385,2.634-4.5,4.616c-1.115,1.98-1.671,4.077-1.671,6.284c0,2.192,0.563,4.288,1.685,6.287
				c1.121,2,2.635,3.558,4.528,4.673c1.896,1.115,3.932,1.672,6.104,1.672c2.188,0,4.265-0.553,6.229-1.658
				c1.961-1.106,3.472-2.601,4.529-4.487c1.058-1.886,1.585-4.01,1.585-6.371c0-3.602-1.187-6.613-3.559-9.029
				C1099.289,280.808,1096.371,279.596,1092.902,279.596z"/>
		</g>
	</g>
	<g>
		<g>
			<g>
				<path fill="#164D69" d="M488.788,167.033c-0.32,0.037-0.682,0.1-1.079,0.178c-1.036,0.239-2.074,0.537-3.112,0.897
					c-1.038,0.361-1.996,0.979-2.874,1.854c-0.318,0.402-0.938,1.517-1.854,3.353c-0.918,1.835-2.017,4.188-3.291,7.061
					c-1.276,2.874-2.713,6.165-4.311,9.877c-1.598,3.709-3.272,7.621-5.027,11.732c-1.755,4.111-3.552,8.299-5.386,12.571
					c-1.837,4.271-3.592,8.399-5.268,12.388c-1.358,3.192-2.675,6.284-3.949,9.28c-1.277,2.989-2.456,5.789-3.532,8.379
					c-1.077,2.597-2.056,4.851-2.934,6.763c-0.879,1.916-1.557,3.395-2.036,4.43c-0.08,0.157-0.199,0.241-0.358,0.241
					c-0.16,0-0.319-0.083-0.479-0.241c-4.309-7.261-7.981-14.683-11.014-22.269c-3.034-7.576-5.945-15.242-8.74-22.982
					c-1.118-2.954-2.233-5.904-3.353-8.858c-1.118-2.954-2.233-5.866-3.352-8.74c-0.24-0.559-0.479-1.199-0.719-1.916
					s-0.479-1.395-0.719-2.035c-1.12-2.874-2.333-5.847-3.651-8.919c-1.316-3.07-2.693-5.763-4.13-8.08
					c-0.879-1.437-1.837-2.395-2.874-2.874c-1.038-0.479-2.156-0.877-3.353-1.196c-0.64-0.159-1.337-0.337-2.096-0.54
					c-0.759-0.196-1.655-0.617-2.693-1.258c-0.239-0.158-0.318-0.317-0.239-0.479c0.078-0.157,0.239-0.238,0.479-0.238
					c1.596,0.081,3.19,0.141,4.788,0.18c1.598,0.04,3.191,0.1,4.789,0.178c2.793,0.162,5.567,0.28,8.322,0.357
					c2.753,0.082,5.605,0.122,8.56,0.122h3.831c0.159,0,0.257,0.138,0.299,0.418c0.039,0.279-0.02,0.459-0.18,0.54
					c-0.398,0.081-0.958,0.219-1.677,0.418c-0.718,0.199-1.417,0.418-2.094,0.659c-0.682,0.238-1.279,0.537-1.797,0.896
					c-0.521,0.36-0.778,0.778-0.778,1.257c0,1.038,0.3,2.655,0.897,4.847c0.598,2.198,1.395,4.769,2.395,7.723
					c0.995,2.954,2.173,6.165,3.53,9.636c1.356,3.472,2.754,7.023,4.19,10.652c1.437,3.635,2.873,7.264,4.311,10.896
					c1.437,3.632,2.793,7,4.069,10.115c1.356,3.188,2.472,5.863,3.353,8.02c0.877,2.154,1.597,3.992,2.156,5.506
					c0.637-1.594,1.356-3.311,2.153-5.146c0.798-1.835,1.678-3.79,2.636-5.866c1.993-4.629,4.19-9.678,6.583-15.146
					c2.395-5.464,4.627-10.833,6.705-16.101c2.073-5.265,3.79-10.135,5.146-14.603c1.356-4.47,2.034-8.061,2.034-10.773
					c0-0.479-0.279-0.921-0.837-1.318c-0.56-0.398-1.197-0.736-1.916-1.019c-0.719-0.276-1.458-0.518-2.215-0.718
					c-0.759-0.199-1.339-0.337-1.737-0.418c-0.239-0.08-0.341-0.279-0.299-0.601c0.039-0.316,0.18-0.437,0.42-0.356
					c2.074,0.239,4.149,0.438,6.224,0.598c2.075,0.161,4.15,0.238,6.227,0.238c2.073,0,4.189-0.077,6.345-0.238
					s4.309-0.36,6.464-0.598l0.119,0.958C489.466,166.895,489.104,166.991,488.788,167.033z"/>
				<path fill="#164D69" d="M508.24,245.803c-1.479-0.039-2.975-0.062-4.49-0.062c-2.153,0-4.271,0.023-6.345,0.062
					c-2.076,0.042-4.189,0.1-6.344,0.18c-0.239,0-0.379-0.138-0.419-0.421c-0.04-0.276,0.061-0.457,0.301-0.537
					c1.994-0.723,3.45-1.819,4.369-3.291c0.916-1.479,1.376-3.253,1.376-5.33v-49.68c0-1.835-0.619-3.115-1.854-3.832
					c-1.237-0.72-2.693-1.199-4.37-1.437c-0.239-0.077-0.341-0.257-0.301-0.537c0.042-0.279,0.181-0.418,0.42-0.418
					c1.676,0.161,3.351,0.28,5.027,0.357c1.676,0.081,3.393,0.122,5.147,0.122c1.678,0,3.353-0.042,5.027-0.122
					c1.678-0.077,3.313-0.238,4.908-0.479c0.241-0.077,0.398,0.042,0.479,0.36c0.079,0.321,0,0.521-0.241,0.598
					c-1.755,0.402-3.172,0.881-4.249,1.437c-1.077,0.56-1.616,1.877-1.616,3.951v49.323c0,3.031,0.578,5.207,1.735,6.521
					c1.157,1.318,3.173,2.096,6.046,2.337v0.955C511.251,245.86,509.716,245.844,508.24,245.803z"/>
				<path fill="#164D69" d="M550.139,236.047c-1.479,2.314-3.353,4.288-5.628,5.924c-2.274,1.636-4.789,2.916-7.542,3.832
					c-2.754,0.919-5.368,1.375-7.842,1.375c-1.199,0-2.454-0.138-3.771-0.418c-1.316-0.28-2.514-0.736-3.593-1.375
					c-1.076-0.64-1.955-1.456-2.632-2.456c-0.68-0.996-1.02-2.253-1.02-3.77c0-0.958,0.1-1.916,0.3-2.874
					c0.199-0.958,0.377-1.874,0.539-2.755l0.599-2.87c0-0.241,0.16-0.36,0.479-0.36s0.479,0.119,0.479,0.36v1.793
					c0,1.678,0.359,3.153,1.078,4.429c0.718,1.279,1.634,2.375,2.753,3.292c1.118,0.919,2.412,1.598,3.891,2.038
					c1.474,0.438,2.972,0.656,4.489,0.656c1.437,0,2.912-0.241,4.429-0.72c1.516-0.479,2.892-1.176,4.131-2.093
					c1.235-0.919,2.255-2.035,3.054-3.352c0.795-1.318,1.195-2.774,1.195-4.369c0-1.514-0.358-3.012-1.077-4.493
					c-0.718-1.472-1.676-2.97-2.873-4.487c-1.196-1.517-2.554-3.034-4.069-4.551c-1.518-1.514-3.073-3.031-4.669-4.548
					c-1.676-1.594-3.353-3.211-5.028-4.847c-1.675-1.636-3.153-3.311-4.428-5.027c-1.278-1.716-2.316-3.452-3.113-5.207
					s-1.197-3.552-1.197-5.387c0-2.713,0.757-5.046,2.274-7.004c1.514-1.954,3.393-3.552,5.625-4.789
					c2.233-1.238,4.67-2.154,7.304-2.755c2.635-0.598,5.067-0.896,7.302-0.896c3.191,0,6.106,0.402,8.739,1.199
					c0.241,0.161,0.358,0.318,0.358,0.479c-0.319,3.909-0.799,7.939-1.437,12.089c-0.08,0.241-0.239,0.363-0.479,0.363
					c-0.239,0-0.399-0.119-0.479-0.363c-0.64-2.79-1.854-5.185-3.651-7.177c-1.795-2-4.172-2.996-7.123-2.996
					c-3.032,0-5.565,0.98-7.602,2.935c-2.033,1.955-3.052,4.449-3.052,7.483c0,1.598,0.341,3.073,1.019,4.426
					c0.675,1.356,1.555,2.674,2.633,3.95c1.076,1.276,2.333,2.533,3.771,3.771s2.914,2.494,4.428,3.771
					c1.678,1.359,3.332,2.774,4.97,4.249c1.636,1.479,3.092,3.034,4.368,4.67s2.314,3.372,3.113,5.207
					c0.795,1.835,1.197,3.832,1.197,5.985C552.354,231.178,551.614,233.733,550.139,236.047z"/>
				<path fill="#164D69" d="M575.755,245.803c-1.477-0.039-2.975-0.062-4.488-0.062c-2.155,0-4.272,0.023-6.346,0.062
					c-2.076,0.042-4.189,0.1-6.345,0.18c-0.239,0-0.378-0.138-0.418-0.421c-0.042-0.276,0.06-0.457,0.299-0.537
					c1.996-0.723,3.452-1.819,4.372-3.291c0.916-1.479,1.375-3.253,1.375-5.33v-49.68c0-1.835-0.62-3.115-1.854-3.832
					c-1.237-0.72-2.695-1.199-4.371-1.437c-0.239-0.077-0.341-0.257-0.299-0.537c0.04-0.279,0.18-0.418,0.418-0.418
					c1.678,0.161,3.353,0.28,5.026,0.357c1.679,0.081,3.394,0.122,5.149,0.122c1.677,0,3.353-0.042,5.027-0.122
					c1.678-0.077,3.311-0.238,4.908-0.479c0.239-0.077,0.398,0.042,0.479,0.36c0.078,0.321,0,0.521-0.241,0.598
					c-1.755,0.402-3.173,0.881-4.251,1.437c-1.075,0.56-1.615,1.877-1.615,3.951v49.323c0,3.031,0.577,5.207,1.735,6.521
					c1.157,1.318,3.173,2.096,6.045,2.337v0.955C578.767,245.86,577.232,245.844,575.755,245.803z"/>
				<path fill="#164D69" d="M651.292,227.844c-1.877,3.951-4.369,7.364-7.482,10.238c-3.111,2.87-6.725,5.107-10.836,6.702
					c-4.11,1.597-8.438,2.395-12.988,2.395c-3.751,0-7.641-0.916-11.671-2.751c-4.031-1.835-7.721-4.23-11.075-7.184
					c-3.353-2.951-6.126-6.303-8.318-10.057c-2.197-3.748-3.293-7.541-3.293-11.372c0-5.824,0.54-10.833,1.616-15.024
					c1.075-4.188,2.813-7.74,5.204-10.652c2.395-2.912,5.548-5.307,9.46-7.184c3.908-1.874,8.697-3.41,14.366-4.609l1.554-0.119
					c5.109-0.398,9.855,0.341,14.246,2.214c4.388,1.88,8.219,4.51,11.491,7.901c3.271,3.397,5.847,7.402,7.724,12.034
					c1.874,4.629,2.813,9.495,2.813,14.606C654.104,219.606,653.166,223.894,651.292,227.844z M644.35,203.126
					c-1.16-3.912-2.874-7.425-5.149-10.537c-2.275-3.111-5.069-5.625-8.38-7.541c-3.313-1.916-7.123-2.874-11.433-2.874
					c-4.069,0-7.683,0.739-10.833,2.215c-3.152,1.479-5.808,3.513-7.961,6.104c-2.154,2.598-3.813,5.59-4.97,8.981
					c-1.158,3.391-1.735,7-1.735,10.832c0,3.992,0.6,7.942,1.797,11.851c1.195,3.912,2.973,7.444,5.324,10.594
					c2.354,3.153,5.207,5.708,8.56,7.663c3.353,1.958,7.184,2.931,11.492,2.931c4.071,0,7.66-0.778,10.776-2.333
					c3.111-1.556,5.725-3.629,7.84-6.226c2.114-2.591,3.712-5.605,4.789-9.035c1.075-3.433,1.615-7.065,1.615-10.896
					C646.085,210.947,645.503,207.035,644.35,203.126z"/>
				<path fill="#164D69" d="M729.342,181.398c-0.041-0.039-0.142-0.019-0.299,0.058c-1.121,0.321-2.297,0.72-3.533,1.199
					c-1.238,0.479-1.855,1.318-1.855,2.514l0.12,28.851v4.905c0,4.632-0.081,9.202-0.241,13.706c-0.16,4.51-0.44,9.039-0.839,13.587
					c0,0.164-0.103,0.302-0.299,0.424c-0.199,0.116-0.38,0.1-0.54-0.061c-3.832-3.272-7.66-6.808-11.491-10.598
					c-3.83-3.79-7.602-7.663-11.313-11.613c-3.711-3.95-7.362-7.939-10.953-11.97c-3.592-4.031-7.024-7.962-10.295-11.793
					c-1.118-1.196-2.116-2.333-2.992-3.407c-0.878-1.077-1.878-2.218-2.993-3.41c-0.241,2.153-0.359,4.23-0.359,6.223
					c0,3.034,0.038,6.065,0.118,9.097c0.081,3.037,0.199,6.068,0.36,9.096c0.161,3.035,0.279,6.065,0.36,9.1
					c0.078,3.035,0.118,6.104,0.118,9.215c0,1.36,0.119,2.456,0.36,3.295c0.239,0.835,0.537,1.495,0.898,1.974
					c0.358,0.479,0.796,0.819,1.316,1.019s1.058,0.341,1.617,0.418c0.638,0.161,1.274,0.341,1.915,0.54
					c0.637,0.199,1.396,0.617,2.272,1.257c0.161,0.161,0.221,0.341,0.181,0.537c-0.041,0.203-0.181,0.299-0.42,0.299
					c-0.799-0.077-1.576-0.158-2.335-0.238c-0.759-0.077-1.536-0.157-2.334-0.238c-1.118-0.161-2.256-0.28-3.41-0.36
					c-1.157-0.081-2.297-0.119-3.413-0.119c-1.438,0-2.914,0.1-4.428,0.299c-1.518,0.199-3.035,0.417-4.55,0.656
					c-0.24,0.083-0.418,0-0.539-0.238c-0.119-0.241-0.101-0.44,0.06-0.598c0.64-0.56,1.215-0.997,1.737-1.318
					c0.516-0.318,1.018-0.598,1.496-0.839c0.958-0.479,1.814-1.135,2.571-1.974c0.759-0.839,1.139-2.173,1.139-4.015v-56.025
					l0.957-1.916c0.079-0.158,0.198-0.277,0.358-0.357c0.159-0.081,0.28-0.039,0.362,0.119c8.696,9.019,17.116,17.897,25.258,26.637
					c8.142,8.739,16.4,17.778,24.78,27.115v-0.363c0-3.667-0.021-7.299-0.06-10.89c-0.042-3.594-0.103-7.261-0.18-11.012
					c-0.08-3.43-0.161-7.081-0.24-10.954c-0.08-3.87-0.117-7.521-0.117-10.955c0-1.356-0.141-2.452-0.421-3.291
					c-0.279-0.839-0.659-1.476-1.134-1.916c-0.479-0.437-1-0.736-1.558-0.896c-0.56-0.161-1.12-0.28-1.677-0.36
					c-0.641-0.077-1.217-0.18-1.737-0.299c-0.519-0.122-0.977-0.379-1.376-0.778c-0.16-0.161-0.178-0.363-0.061-0.598
					c0.12-0.241,0.259-0.318,0.419-0.241c1.836,0.241,3.551,0.36,5.149,0.36c1.677,0,3.352,0,5.029,0
					c1.035,0,2.092-0.019,3.171-0.061c1.078-0.039,2.175-0.016,3.293,0.061c0.398,0,0.837,0.02,1.316,0.061
					c0.479,0.039,0.916,0.058,1.317,0.058l0.241,0.958C729.479,181.417,729.382,181.44,729.342,181.398z"/>
				<path fill="#164D69" d="M852.647,157.712c-0.319,0.042-0.68,0.104-1.078,0.18c-1.036,0.239-2.075,0.54-3.111,0.896
					c-1.038,0.36-1.996,0.98-2.874,1.858c-0.319,0.398-0.939,1.517-1.854,3.35c-0.919,1.838-2.019,4.191-3.291,7.065
					c-1.278,2.874-2.715,6.165-4.311,9.874c-1.598,3.712-3.274,7.625-5.027,11.732c-1.757,4.111-3.552,8.303-5.387,12.571
					c-1.837,4.269-3.591,8.4-5.269,12.391c-1.356,3.19-2.674,6.284-3.95,9.276s-2.452,5.787-3.531,8.379
					c-1.075,2.594-2.056,4.847-2.933,6.763c-0.881,1.916-1.556,3.391-2.035,4.429c-0.08,0.161-0.202,0.239-0.359,0.239
					c-0.161,0-0.318-0.08-0.479-0.239c-4.31-7.261-7.98-14.683-11.012-22.265c-3.034-7.583-5.946-15.242-8.739-22.985
					c-1.121-2.951-2.236-5.905-3.354-8.859c-1.119-2.951-2.234-5.866-3.352-8.741c-0.241-0.556-0.479-1.196-0.721-1.916
					c-0.24-0.717-0.479-1.395-0.72-2.035c-1.118-2.872-2.333-5.844-3.648-8.917c-1.317-3.071-2.694-5.766-4.132-8.079
					c-0.879-1.437-1.837-2.395-2.873-2.874c-1.039-0.479-2.155-0.877-3.352-1.201c-0.641-0.157-1.338-0.337-2.096-0.537
					s-1.658-0.617-2.693-1.257c-0.241-0.161-0.32-0.318-0.241-0.479s0.241-0.239,0.479-0.239c1.596,0.08,3.191,0.141,4.789,0.178
					c1.596,0.042,3.191,0.104,4.789,0.18c2.793,0.161,5.565,0.28,8.32,0.36c2.753,0.081,5.605,0.119,8.56,0.119h3.83
					c0.16,0,0.26,0.141,0.3,0.418c0.041,0.283-0.019,0.462-0.178,0.54c-0.402,0.081-0.958,0.222-1.678,0.418
					c-0.721,0.203-1.418,0.421-2.096,0.657c-0.679,0.241-1.276,0.54-1.795,0.902c-0.52,0.356-0.778,0.778-0.778,1.257
					c0,1.038,0.301,2.652,0.896,4.847c0.597,2.195,1.396,4.768,2.395,7.719c0.995,2.954,2.175,6.165,3.531,9.637
					c1.356,3.47,2.755,7.023,4.191,10.655s2.874,7.264,4.311,10.893c1.437,3.632,2.792,7.004,4.069,10.114
					c1.356,3.195,2.472,5.866,3.353,8.02c0.877,2.159,1.596,3.994,2.155,5.511c0.638-1.599,1.355-3.313,2.154-5.149
					c0.796-1.835,1.677-3.792,2.635-5.866c1.992-4.625,4.189-9.675,6.583-15.143c2.395-5.462,4.627-10.835,6.703-16.099
					c2.075-5.268,3.791-10.135,5.149-14.605c1.356-4.47,2.034-8.062,2.034-10.776c0-0.479-0.279-0.916-0.839-1.318
					c-0.559-0.398-1.195-0.736-1.916-1.016c-0.718-0.28-1.457-0.516-2.214-0.72c-0.759-0.196-1.337-0.337-1.736-0.418
					c-0.241-0.077-0.341-0.28-0.3-0.598c0.04-0.318,0.18-0.437,0.419-0.36c2.073,0.239,4.149,0.44,6.225,0.598
					c2.075,0.161,4.147,0.239,6.226,0.239c2.074,0,4.19-0.08,6.344-0.239c2.156-0.159,4.311-0.358,6.464-0.598l0.122,0.958
					C853.324,157.574,852.968,157.673,852.647,157.712z"/>
				<path fill="#164D69" d="M872.099,246.539c-1.477-0.039-2.973-0.058-4.488-0.058c-2.155,0-4.271,0.02-6.344,0.058
					c-2.078,0.04-4.191,0.103-6.345,0.178c-0.241,0-0.379-0.138-0.418-0.417c-0.042-0.28,0.06-0.458,0.299-0.54
					c1.996-0.717,3.452-1.813,4.37-3.292c0.917-1.474,1.376-3.25,1.376-5.325v-49.681c0-1.834-0.619-3.115-1.855-3.832
					c-1.237-0.72-2.693-1.199-4.369-1.435c-0.24-0.079-0.341-0.257-0.299-0.54c0.038-0.276,0.18-0.418,0.418-0.418
					c1.678,0.161,3.352,0.28,5.026,0.36c1.679,0.081,3.393,0.119,5.149,0.119c1.676,0,3.353-0.039,5.027-0.119
					c1.675-0.08,3.311-0.241,4.908-0.479c0.239-0.08,0.396,0.041,0.479,0.36c0.077,0.318,0,0.518-0.24,0.598
					c-1.757,0.398-3.173,0.877-4.252,1.437c-1.076,0.56-1.616,1.874-1.616,3.949v49.321c0,3.034,0.577,5.207,1.737,6.525
					c1.157,1.315,3.172,2.094,6.043,2.333v0.958C875.113,246.6,873.576,246.581,872.099,246.539z"/>
				<path fill="#164D69" d="M945.063,227.503c-1.835,4.353-4.391,7.943-7.66,10.774c-3.274,2.835-7.225,4.95-11.852,6.343
					c-4.63,1.4-9.738,2.096-15.324,2.096c-2.076,0-4.209-0.08-6.404-0.241c-2.195-0.158-4.33-0.317-6.404-0.479
					c-2.316-0.158-4.651-0.317-7.004-0.478c-2.354-0.159-4.689-0.196-7.001-0.119c-0.241,0-0.379-0.138-0.418-0.418
					c-0.042-0.28,0.058-0.459,0.299-0.54c2.634-0.556,4.251-1.475,4.848-2.754c0.598-1.273,0.896-3.19,0.896-5.744v-49.442
					c0-1.835-0.479-3.012-1.437-3.531s-1.916-0.856-2.874-1.017c-0.56-0.079-1.076-0.199-1.556-0.362
					c-0.479-0.157-0.837-0.437-1.078-0.835c-0.32-0.479-0.201-0.72,0.358-0.72c1.038,0,2.036,0.02,2.994,0.06
					c0.958,0.042,1.956,0.101,2.992,0.18c1.197,0.08,2.513,0.161,3.949,0.239c1.437,0.081,2.793,0.117,4.069,0.117
					c1.598,0,3.191-0.037,4.789-0.117c1.598-0.079,3.191-0.199,4.789-0.361c1.518-0.158,3.092-0.256,4.731-0.299
					c1.633-0.039,3.21-0.058,4.729-0.058c4.627,0,8.916,0.835,12.868,2.514c3.949,1.674,7.362,3.969,10.234,6.881
					c2.873,2.916,5.127,6.345,6.765,10.295c1.634,3.951,2.452,8.161,2.452,12.629C947.817,218.028,946.898,223.155,945.063,227.503z
					 M937.222,202.304c-1.638-3.909-3.891-7.24-6.765-9.993c-2.873-2.755-6.325-4.87-10.353-6.344
					c-4.032-1.479-8.44-2.214-13.23-2.214c-1.598,0-3.191,0.081-4.788,0.238c-1.599,0.161-3.154,0.521-4.668,1.077v47.526
					c0,2.314,0.257,4.148,0.777,5.506c0.518,1.359,1.297,2.395,2.334,3.113c1.037,0.72,2.334,1.18,3.891,1.379
					c1.558,0.199,3.412,0.299,5.565,0.299c4.39,0,8.399-0.579,12.031-1.736s6.765-2.874,9.398-5.149
					c2.633-2.272,4.667-5.127,6.104-8.56c1.437-3.43,2.154-7.422,2.154-11.97C939.676,210.606,938.856,206.215,937.222,202.304z"/>
				<path fill="#164D69" d="M1007.853,246.452c-0.998-0.077-2.056-0.157-3.173-0.238c-0.641-0.08-1.299-0.138-1.975-0.18
					c-0.679-0.036-1.376-0.062-2.096-0.062c-1.836,0-3.671,0.084-5.506,0.241c-1.836,0.161-3.671,0.318-5.507,0.479
					c-0.241,0-0.399-0.122-0.479-0.36c-0.081-0.238,0-0.438,0.241-0.598l4.667-2.275c-1.356-3.751-2.774-7.441-4.249-11.073
					c-1.479-3.629-2.894-7.361-4.25-11.192h-18.556c-0.398,1.039-0.979,2.575-1.735,4.609c-0.759,2.035-1.498,4.15-2.215,6.345
					c-0.721,2.195-1.359,4.269-1.916,6.223c-0.56,1.954-0.839,3.375-0.839,4.249c0,1.199,0.519,1.974,1.558,2.337
					c1.035,0.357,2.033,0.617,2.99,0.778v0.958c-1.517-0.161-3.07-0.299-4.667-0.421c-1.597-0.119-3.193-0.177-4.789-0.177
					c-1.598,0-3.193,0.058-4.789,0.177c-1.598,0.122-3.192,0.26-4.79,0.421c-0.24,0.081-0.379-0.039-0.417-0.36
					c-0.042-0.318,0.06-0.518,0.299-0.598c4.391-0.559,7.462-2.874,9.218-6.943v0.116c2.314-5.821,4.549-11.648,6.705-17.476
					c2.154-5.824,4.27-11.693,6.344-17.595c1.438-3.992,2.834-7.962,4.189-11.912c1.357-3.95,2.794-7.92,4.311-11.912
					c0.077-0.238,0.241-0.36,0.479-0.36c0.237,0,0.398,0.123,0.479,0.36c0.398,1.119,0.818,2.214,1.257,3.292
					c0.438,1.08,0.858,2.176,1.257,3.294c3.272,8.939,6.685,17.917,10.235,26.933c3.551,9.019,7.603,17.839,12.15,26.457
					c0.958,1.839,2.175,3.153,3.653,3.951c1.474,0.797,3.169,1.276,5.085,1.437v0.958
					C1009.906,246.494,1008.851,246.532,1007.853,246.452z M976.309,192.343c-1.355,4.233-2.654,8.36-3.889,12.391
					c-1.237,4.031-2.616,8.2-4.132,12.51h15.442L976.309,192.343z"/>
				<path fill="#164D69" d="M1093.612,195.772c-1.493,1.359-3.087,3.021-4.779,4.979c-1.692,1.956-3.372,4.069-5.03,6.326
					c-1.66,2.257-3.139,4.481-4.433,6.673c-1.294,2.192-2.357,4.219-3.187,6.075c-0.833,1.861-1.244,3.353-1.244,4.481v16.335
					c0,0.797,0.231,1.479,0.697,2.044c0.463,0.563,1.028,1.063,1.694,1.492c0.662,0.434,1.394,0.784,2.192,1.048
					c0.795,0.267,1.526,0.466,2.191,0.598c0.197,0.067,0.279,0.215,0.248,0.447c-0.035,0.235-0.148,0.351-0.348,0.351
					c-1.33-0.068-2.688-0.102-4.082-0.102c-1.33,0-2.658,0-3.985,0c-1.728,0-3.421,0-5.081,0c-1.592,0-3.222,0.067-4.879,0.199
					c-0.199,0-0.316-0.1-0.349-0.299c-0.035-0.199,0.048-0.368,0.247-0.5c1.131-0.464,2.143-1.159,3.039-2.091
					c0.897-0.929,1.346-2.025,1.346-3.288V225.4c0-0.927-0.434-2.324-1.295-4.182c-0.865-1.858-1.993-3.949-3.389-6.274
					c-1.395-2.326-2.938-4.715-4.631-7.171c-1.693-2.459-3.369-4.731-5.027-6.823c-1.662-2.092-3.225-3.851-4.684-5.277
					c-1.461-1.427-2.623-2.276-3.486-2.543c-0.197-0.064-0.282-0.212-0.248-0.447c0.033-0.231,0.15-0.35,0.35-0.35
					c1.593,0.135,3.104,0.25,4.531,0.35c1.425,0.102,2.903,0.148,4.431,0.148c1.857,0,3.786-0.1,5.776-0.299
					c0.199,0,0.334,0.087,0.398,0.251c0.067,0.167,0.033,0.313-0.1,0.445c-0.068,0.068-0.084,0.068-0.051,0
					c0.034-0.064,0.018-0.064-0.049,0c-0.397,0.334-0.781,0.666-1.145,0.997c-0.367,0.333-0.549,0.697-0.549,1.096
					c0,0.464,0.532,1.678,1.594,3.635c1.061,1.959,2.323,4.185,3.784,6.673c1.461,2.491,2.956,4.998,4.482,7.521
					c1.528,2.521,2.756,4.548,3.687,6.073c0.397-0.728,1.029-1.793,1.892-3.188c0.863-1.394,1.76-2.887,2.688-4.482
					c0.798-1.395,1.694-2.92,2.691-4.579c0.994-1.664,1.922-3.272,2.786-4.833c0.861-1.559,1.577-2.938,2.141-4.134
					c0.563-1.197,0.849-1.993,0.849-2.392c0-0.598-0.185-1.096-0.55-1.495c-0.363-0.398-0.813-0.728-1.343-0.995
					c-0.199-0.132-0.268-0.312-0.199-0.546c0.065-0.233,0.199-0.315,0.398-0.251c0.861,0.2,1.775,0.334,2.738,0.399
					c0.963,0.067,1.906,0.1,2.838,0.1c1.264,0,2.491-0.032,3.688-0.1c1.195-0.064,2.355-0.166,3.485-0.301
					c0.132,0,0.299-0.013,0.498-0.046c0.198-0.034,0.365-0.052,0.497-0.052l0.101,0.797
					C1096.385,193.529,1095.107,194.409,1093.612,195.772z"/>
				<path fill="#164D69" d="M1172.347,198.807c-1.063,2.787-2.524,5.278-4.383,7.47c-1.859,2.192-4.067,3.967-6.622,5.33
					c-2.558,1.359-5.364,2.04-8.416,2.04c-1.859,0-3.785-0.262-5.777-0.796c-0.199-0.064-0.283-0.233-0.25-0.498
					c0.034-0.264,0.15-0.365,0.35-0.301c0.398,0.068,0.764,0.102,1.096,0.102c0.398,0,0.797,0,1.195,0
					c2.59,0,4.914-0.415,6.973-1.246c2.057-0.83,3.802-2.009,5.229-3.534c1.427-1.527,2.521-3.353,3.288-5.48
					c0.762-2.125,1.143-4.445,1.143-6.972c0-2.256-0.348-4.511-1.045-6.771c-0.699-2.256-1.728-4.297-3.089-6.128
					c-1.361-1.824-3.021-3.301-4.979-4.431c-1.959-1.13-4.167-1.691-6.623-1.691c-2.26,0-4.647,0.53-7.171,1.591v59.464
					c0,3.121,0.663,5.363,1.992,6.725c1.328,1.359,3.588,2.108,6.772,2.24c0.2,0,0.3,0.135,0.3,0.398c0,0.267-0.1,0.398-0.3,0.398
					h-15.238c-1.53,0-3.056,0-4.582,0c-1.528,0-3.056-0.034-4.582-0.101c-0.199,0-0.315-0.114-0.349-0.35
					c-0.034-0.231,0.05-0.378,0.249-0.445c1.658-0.264,2.954-0.632,3.883-1.096c0.929-0.463,1.595-1.08,1.993-1.842
					c0.398-0.765,0.63-1.694,0.697-2.79c0.064-1.096,0.1-2.438,0.1-4.034v-55.279c0-0.995-0.249-1.909-0.746-2.739
					c-0.498-0.829-1.115-1.557-1.844-2.192c-0.73-0.63-1.561-1.161-2.488-1.594c-0.932-0.431-1.828-0.746-2.691-0.945
					c-0.199-0.064-0.282-0.199-0.249-0.398c0.034-0.198,0.149-0.299,0.349-0.299c2.592,0.135,5.179,0.234,7.77,0.299
					c2.591,0.067,5.146,0.101,7.669,0.101h12.351c2.99,0,5.694,0.267,8.118,0.797c2.425,0.529,4.483,1.462,6.178,2.789
					c1.69,1.329,3.002,3.085,3.935,5.278c0.929,2.192,1.395,4.979,1.395,8.367C1173.942,193.162,1173.405,196.017,1172.347,198.807z
					"/>
				<path fill="#164D69" d="M1232.953,230.628c-1.561,3.288-3.635,6.128-6.226,8.516c-2.588,2.392-5.593,4.252-9.013,5.58
					c-3.422,1.328-7.023,1.993-10.809,1.993c-3.119,0-6.355-0.765-9.709-2.292c-3.355-1.528-6.425-3.521-9.215-5.976
					c-2.79-2.456-5.096-5.247-6.922-8.368c-1.827-3.12-2.74-6.276-2.74-9.463c0-4.846,0.448-9.016,1.345-12.5
					c0.897-3.487,2.342-6.441,4.333-8.865c1.993-2.424,4.614-4.417,7.869-5.976c3.252-1.559,7.236-2.84,11.952-3.834l1.295-0.102
					c4.248-0.329,8.2,0.285,11.853,1.842c3.652,1.563,6.839,3.751,9.562,6.573c2.724,2.822,4.864,6.162,6.425,10.009
					c1.559,3.854,2.34,7.904,2.34,12.153C1235.293,223.772,1234.512,227.34,1232.953,230.628z M1227.176,210.06
					c-0.963-3.254-2.39-6.176-4.285-8.765c-1.891-2.587-4.217-4.682-6.97-6.276c-2.758-1.594-5.927-2.392-9.513-2.392
					c-3.387,0-6.392,0.617-9.015,1.845c-2.624,1.228-4.831,2.922-6.623,5.079c-1.792,2.158-3.171,4.647-4.135,7.47
					c-0.961,2.822-1.443,5.828-1.443,9.015c0,3.323,0.5,6.608,1.493,9.861c0.996,3.256,2.473,6.194,4.433,8.815
					c1.956,2.623,4.333,4.747,7.121,6.374c2.79,1.626,5.977,2.44,9.563,2.44c3.388,0,6.374-0.648,8.965-1.943
					c2.587-1.295,4.763-3.021,6.522-5.18c1.757-2.158,3.088-4.664,3.984-7.518c0.896-2.854,1.346-5.879,1.346-9.064
					C1228.621,216.568,1228.139,213.316,1227.176,210.06z"/>
				<path fill="#164D69" d="M1292.167,230.729c-1.528,3.62-3.651,6.61-6.372,8.965c-2.725,2.356-6.011,4.118-9.861,5.278
					c-3.852,1.164-8.102,1.745-12.748,1.745c-1.729,0-3.504-0.067-5.33-0.199c-1.827-0.135-3.602-0.265-5.327-0.397
					c-1.929-0.135-3.87-0.267-5.827-0.398c-1.958-0.132-3.902-0.169-5.828-0.101c-0.199,0-0.313-0.114-0.347-0.351
					c-0.035-0.231,0.048-0.377,0.247-0.445c2.192-0.463,3.536-1.228,4.034-2.293c0.498-1.061,0.747-2.654,0.747-4.778v-41.136
					c0-1.528-0.398-2.507-1.197-2.938c-0.797-0.431-1.593-0.715-2.388-0.85c-0.466-0.064-0.897-0.164-1.296-0.299
					c-0.398-0.132-0.697-0.363-0.896-0.698c-0.267-0.398-0.167-0.595,0.299-0.595c0.861,0,1.693,0.016,2.491,0.048
					c0.797,0.034,1.626,0.083,2.491,0.148c0.994,0.067,2.091,0.135,3.285,0.199c1.197,0.067,2.323,0.1,3.388,0.1
					c1.327,0,2.655-0.032,3.983-0.1c1.33-0.064,2.654-0.164,3.984-0.299c1.264-0.132,2.571-0.212,3.935-0.248
					c1.361-0.032,2.674-0.048,3.936-0.048c3.851,0,7.422,0.694,10.708,2.091c3.287,1.395,6.125,3.305,8.517,5.727
					c2.39,2.425,4.266,5.278,5.627,8.566s2.042,6.789,2.042,10.507C1294.459,222.845,1293.693,227.11,1292.167,230.729z
					 M1285.644,209.762c-1.361-3.252-3.237-6.027-5.628-8.315c-2.391-2.292-5.264-4.05-8.613-5.281
					c-3.354-1.228-7.024-1.842-11.007-1.842c-1.329,0-2.657,0.067-3.984,0.199c-1.331,0.135-2.623,0.434-3.883,0.897v39.542
					c0,1.925,0.216,3.452,0.647,4.581c0.431,1.131,1.078,1.993,1.943,2.589c0.861,0.598,1.941,0.982,3.236,1.147
					c1.296,0.166,2.84,0.248,4.632,0.248c3.65,0,6.988-0.482,10.01-1.443c3.021-0.964,5.628-2.391,7.818-4.286
					c2.192-1.892,3.885-4.265,5.08-7.12c1.197-2.853,1.792-6.178,1.792-9.961C1287.685,216.67,1287.003,213.019,1285.644,209.762z"
					/>
				<path fill="#164D69" d="M1330.515,241.584c-0.199,1.427-0.398,2.905-0.598,4.431c0,0.199-0.135,0.301-0.398,0.301l-0.1,0.1
					c-0.532,0.199-0.965,0.3-1.296,0.3c-1.528,0-3.071-0.018-4.632-0.051c-1.559-0.034-3.104-0.048-4.63-0.048
					c-1.33,0-2.623-0.016-3.885-0.05s-2.557-0.048-3.883-0.048c-1.793,0-3.602,0.016-5.429,0.048
					c-1.825,0.034-3.636,0.083-5.429,0.151v-0.797c0.996,0,1.81-0.215,2.439-0.649c0.632-0.432,1.112-0.979,1.445-1.643
					c0.33-0.662,0.548-1.411,0.647-2.24c0.101-0.829,0.149-1.678,0.149-2.539v-41.436c0-1.329-0.315-2.192-0.945-2.591
					c-0.633-0.398-1.312-0.729-2.041-0.996c-0.398-0.132-0.847-0.28-1.345-0.445c-0.499-0.166-1.011-0.415-1.543-0.749
					c-0.134-0.132-0.184-0.28-0.149-0.445c0.033-0.166,0.149-0.247,0.349-0.247h28.387c0.265-0.135,0.548-0.251,0.847-0.351
					c0.301-0.101,0.582-0.215,0.848-0.347c0.331-0.135,0.5,0,0.5,0.398c-0.199,1.726-0.449,3.335-0.748,4.828
					c-0.299,1.495-0.615,3.005-0.946,4.532c-0.067,0.2-0.216,0.286-0.448,0.251c-0.233-0.034-0.35-0.153-0.35-0.351
					c-0.133-2.32-0.928-3.849-2.388-4.58c-1.462-0.729-3.256-1.096-5.381-1.096h-7.875v20.42h11.556
					c0.332,0,0.764-0.101,1.295-0.301c0.529-0.199,1.061-0.398,1.595-0.596c0.728-0.398,1.459-0.699,2.19-0.898
					c0.331-0.13,0.498,0,0.498,0.398c-0.067,0.797-0.149,1.658-0.249,2.587c-0.1,0.932-0.217,1.793-0.349,2.591
					c-0.133,0.795-0.233,1.628-0.299,2.491c-0.066,0.863-0.167,1.694-0.299,2.488c0,0.199-0.086,0.334-0.249,0.398
					c-0.166,0.067-0.315,0.035-0.448-0.1c-0.332-0.331-0.547-0.662-0.646-0.995c-0.1-0.334-0.217-0.697-0.349-1.096
					c-0.136-0.399-0.267-0.796-0.398-1.196c-0.134-0.399-0.366-0.762-0.698-1.096c-0.332-0.331-0.946-0.583-1.843-0.746
					c-0.896-0.167-1.859-0.299-2.888-0.399c-1.031-0.1-2.041-0.151-3.038-0.151c-0.998,0-1.76,0-2.293,0h-2.986v20.52
					c0.995,1.459,2.405,2.573,4.231,3.336c1.826,0.762,3.602,1.144,5.329,1.144c2.324,0,4.298-0.614,5.926-1.841
					c1.626-1.228,2.706-2.975,3.24-5.231l0.794,0.199C1330.979,238.678,1330.713,240.157,1330.515,241.584z"/>
				<path fill="#164D69" d="M1386.739,246.27c-1.229,0.301-2.441,0.447-3.636,0.447c-1.992,0-3.785-0.363-5.381-1.093
					c-1.594-0.729-3.022-1.662-4.283-2.79c-1.263-1.128-2.439-2.423-3.535-3.884s-2.143-2.954-3.137-4.482
					c-0.93-1.395-1.908-2.771-2.938-4.133c-1.032-1.36-2.16-2.591-3.388-3.684c-1.229-1.096-2.557-1.976-3.984-2.641
					c-1.429-0.662-3.037-0.997-4.831-0.997c-0.532,0-1.063,0-1.594,0c-0.465,0-0.965,0.067-1.493,0.199v14.148
					c0,1.925,0.58,3.568,1.743,4.929c1.161,1.36,2.705,2.143,4.631,2.342v0.795c-1.528-0.131-3.039-0.249-4.532-0.35
					c-1.493-0.1-3.004-0.148-4.532-0.148s-3.006,0.067-4.431,0.199c-1.43,0.132-2.908,0.299-4.433,0.499
					c-0.199,0.064-0.349-0.016-0.447-0.251c-0.101-0.231-0.05-0.415,0.149-0.546c1.396-0.664,2.556-1.659,3.486-2.988
					c0.928-1.329,1.395-2.754,1.395-4.283v-39.739c0-1.527-0.548-2.874-1.644-4.034c-1.095-1.164-2.407-1.945-3.935-2.343
					c-0.199-0.064-0.283-0.212-0.249-0.447c0.034-0.231,0.149-0.347,0.349-0.347h19.621c2.06,0,4.084,0.248,6.077,0.746
					c1.991,0.499,3.751,1.279,5.279,2.34c1.526,1.064,2.755,2.459,3.686,4.185c0.927,1.726,1.394,3.783,1.394,6.174
					c0,3.187-0.881,6.21-2.641,9.066c-1.759,2.853-3.735,5.313-5.928,7.371c0.731,0.797,1.527,1.81,2.392,3.037
					c0.86,1.228,1.792,2.507,2.787,3.835c1.462,1.993,3.004,4.034,4.632,6.128c1.626,2.089,3.336,3.982,5.13,5.675
					c1.792,1.694,3.651,3.021,5.577,3.984c1.925,0.964,3.884,1.315,5.877,1.048l0.299,0.796
					C1389.145,245.557,1387.967,245.971,1386.739,246.27z M1364.327,202.595c-0.498-1.728-1.243-3.289-2.24-4.682
					c-0.995-1.395-2.226-2.542-3.685-3.436c-1.463-0.897-3.155-1.345-5.08-1.345c-0.796,0-1.595,0.05-2.389,0.151
					c-0.797,0.1-1.563,0.313-2.293,0.646v24.802c1.129,0.199,2.226,0.334,3.286,0.398c1.063,0.067,2.16,0.1,3.288,0.1
					c3.717,0,6.291-1.013,7.718-3.038s2.142-4.833,2.142-8.418C1365.074,206.047,1364.826,204.321,1364.327,202.595z"/>
			</g>
		</g>
		<g>
			<g>
				<path fill="#164D69" d="M633.578,170.16c-3.032-0.161-5.986,0.295-8.856,1.379c-2.875,1.077-5.714,2.096-8.504,3.049
					c0.961-0.476,2.175-1.273,3.651-2.388c1.476-1.116,2.974-2.257,4.492-3.417c1.518-1.154,2.991-2.15,4.428-2.991
					c1.436-0.837,2.629-1.255,3.595-1.255c0.716,0,1.315,0.199,1.794,0.598c0.478,0.401,0.856,0.896,1.133,1.498
					c0.28,0.593,0.498,1.218,0.657,1.854c0.159,0.637,0.28,1.238,0.362,1.797L633.578,170.16z"/>
			</g>
		</g>
	</g>
</g>
</svg>
