<?xml version="1.0" encoding="utf-8"?>
<!-- Generator: Adobe Illustrator 16.0.0, SVG Export Plug-In . SVG Version: 6.00 Build 0)  -->
<!DOCTYPE svg PUBLIC "-//W3C//DTD SVG 1.1//EN" "http://www.w3.org/Graphics/SVG/1.1/DTD/svg11.dtd">
<svg version="1.1" id="Capa_1" xmlns="http://www.w3.org/2000/svg" xmlns:xlink="http://www.w3.org/1999/xlink" x="0px" y="0px"
	 width="320px" height="212.965px" viewBox="123.465 0 320 212.965" enable-background="new 123.465 0 320 212.965"
	 xml:space="preserve">
<g display="none">
	<g display="inline" opacity="0.8">
		
			<image overflow="visible" enable-background="new    " width="2263" height="2263" xlink:href="DA169322.png"  transform="matrix(0.2395 0 0 0.2395 9.6255 15.7148)">
		</image>
	</g>
	<g display="inline">
		
			<radialGradient id="SVGID_1_" cx="36.583" cy="381.2129" r="221.0371" gradientTransform="matrix(1 0 0 -1 244 661.9297)" gradientUnits="userSpaceOnUse">
			<stop  offset="0" style="stop-color:#ADD8F5"/>
			<stop  offset="0.0237" style="stop-color:#A7D4F3"/>
			<stop  offset="0.2757" style="stop-color:#72AADC"/>
			<stop  offset="0.4955" style="stop-color:#458DCC"/>
			<stop  offset="0.6727" style="stop-color:#237DC1"/>
			<stop  offset="0.7849" style="stop-color:#0E77BD"/>
			<stop  offset="0.8354" style="stop-color:#1075BA"/>
			<stop  offset="0.8778" style="stop-color:#146DAE"/>
			<stop  offset="0.9173" style="stop-color:#1A609C"/>
			<stop  offset="0.9551" style="stop-color:#1E5086"/>
			<stop  offset="0.9914" style="stop-color:#1F3E6C"/>
			<stop  offset="1" style="stop-color:#1E3966"/>
		</radialGradient>
		<path fill="url(#SVGID_1_)" d="M280.582,501.753c-59.041,0-114.547-22.992-156.296-64.741
			c-41.749-41.748-64.74-97.256-64.74-156.296c0-59.041,22.992-114.549,64.74-156.297s97.255-64.74,156.296-64.74
			c59.042,0,114.549,22.992,156.298,64.74c41.748,41.749,64.74,97.256,64.74,156.297s-22.992,114.548-64.74,156.296
			C395.131,478.761,339.623,501.753,280.582,501.753z"/>
		<path fill="#FFFFFF" d="M280.582,61.678c120.972,0,219.038,98.066,219.038,219.038c0,120.97-98.066,219.038-219.038,219.038
			c-120.97,0-219.036-98.066-219.036-219.038S159.612,61.678,280.582,61.678 M280.582,57.678c-30.108,0-59.317,5.897-86.817,17.529
			c-26.559,11.234-50.411,27.315-70.893,47.797s-36.563,44.334-47.797,70.894c-11.631,27.5-17.529,56.709-17.529,86.817
			c0,30.108,5.897,59.318,17.529,86.817c11.234,26.56,27.315,50.412,47.797,70.895c20.482,20.481,44.334,36.563,70.893,47.797
			c27.5,11.632,56.709,17.529,86.817,17.529c30.107,0,59.318-5.897,86.816-17.529c26.562-11.232,50.412-27.314,70.896-47.797
			c20.482-20.481,36.563-44.335,47.797-70.895c11.632-27.499,17.529-56.709,17.529-86.817c0-30.108-5.897-59.318-17.529-86.817
			c-11.232-26.56-27.313-50.412-47.797-70.894S393.96,86.44,367.398,75.207C339.9,63.575,310.689,57.678,280.582,57.678
			L280.582,57.678z"/>
	</g>
	<g display="inline">
		
			<image overflow="visible" enable-background="new    " width="2546" height="2608" xlink:href="DA169326.png"  transform="matrix(0.2395 0 0 0.2396 -21.5991 -28.7539)">
		</image>
	</g>
	
		<radialGradient id="SVGID_2_" cx="36.7793" cy="355.8066" r="266.1299" gradientTransform="matrix(1 0 0 -1.3288 244 784.3779)" gradientUnits="userSpaceOnUse">
		<stop  offset="0" style="stop-color:#FEDA90"/>
		<stop  offset="0.0837" style="stop-color:#FED989"/>
		<stop  offset="0.2155" style="stop-color:#FED673"/>
		<stop  offset="0.378" style="stop-color:#FFD24B"/>
		<stop  offset="0.4974" style="stop-color:#FFCF1C"/>
		<stop  offset="0.5985" style="stop-color:#E7A22F"/>
		<stop  offset="0.679" style="stop-color:#D88533"/>
		<stop  offset="0.7225" style="stop-color:#D37A34"/>
		<stop  offset="0.725" style="stop-color:#D27834"/>
		<stop  offset="0.7729" style="stop-color:#C55D34"/>
		<stop  offset="0.8229" style="stop-color:#BB4833"/>
		<stop  offset="0.8754" style="stop-color:#B53931"/>
		<stop  offset="0.932" style="stop-color:#B13031"/>
		<stop  offset="1" style="stop-color:#B02D30"/>
	</radialGradient>
	<path display="inline" fill="url(#SVGID_2_)" d="M265.206,194.413c0,0,11.357-182.469,16.327-188.147
		c4.972-5.681,14.91,188.147,14.91,188.147s201.705,2.378,240.688,17.75c-43.744,16.475-239.267,17.041-239.267,17.041
		s-4.883,313.082-17.749,308.131c-9.23-3.55-14.908-308.135-14.908-308.135S18.51,224.651,20.46,213.709
		C35.024,205.596,195.625,193.708,265.206,194.413z"/>
</g>
<g>
	<path fill="#192C4B" d="M336.017,106.319c0,33.821-27.418,61.239-61.24,61.239c-33.82,0-61.238-27.418-61.238-61.239
		s27.417-61.239,61.238-61.239C308.599,45.081,336.017,72.498,336.017,106.319z"/>
	<g>
		<path fill="#192C4A" d="M275.464,19.851c48.389,0,87.616,39.227,87.616,87.615s-39.227,87.615-87.616,87.615
			s-87.615-39.228-87.615-87.616S227.075,19.851,275.464,19.851 M275.464,18.869c-11.96,0-23.563,2.342-34.487,6.962
			c-10.55,4.462-20.024,10.851-28.161,18.987c-8.136,8.137-14.524,17.611-18.986,28.162c-4.62,10.923-6.963,22.526-6.963,34.486
			s2.343,23.563,6.963,34.486c4.462,10.552,10.85,20.025,18.986,28.161c8.137,8.138,17.611,14.525,28.161,18.987
			c10.924,4.62,22.526,6.964,34.487,6.964s23.564-2.344,34.487-6.964c10.55-4.462,20.024-10.851,28.161-18.987
			c8.137-8.136,14.524-17.609,18.986-28.161c4.62-10.923,6.963-22.526,6.963-34.486s-2.343-23.563-6.963-34.486
			c-4.462-10.55-10.851-20.025-18.986-28.162c-8.137-8.136-17.611-14.524-28.161-18.987
			C299.028,21.211,287.425,18.869,275.464,18.869L275.464,18.869z"/>
	</g>
	<g>
		<g>
			
				<path fill="#1D71B8" stroke="#1D71B8" stroke-width="0.5" stroke-linecap="round" stroke-linejoin="round" stroke-miterlimit="10" d="
				M206.358,103.112c0.596,0.506,1.091,1.12,1.484,1.839c0.393,0.72,0.67,1.496,0.83,2.33c0.159,0.833,0.198,1.614,0.115,2.34
				c-0.042,0.363-0.122,0.731-0.24,1.104c-0.119,0.372-0.284,0.703-0.496,0.995c-0.211,0.292-0.467,0.521-0.766,0.688
				c-0.299,0.168-0.659,0.228-1.078,0.18c-0.301-0.034-0.583-0.097-0.845-0.188c-0.261-0.091-0.514-0.186-0.757-0.283
				c-0.13-0.05-0.265-0.096-0.404-0.139c-0.14-0.042-0.274-0.088-0.404-0.138c-0.049-0.023-0.065-0.064-0.049-0.124
				c0.015-0.06,0.048-0.087,0.098-0.081l0.277,0.032c0.52,0.059,0.991,0.021,1.414-0.115c0.423-0.136,0.788-0.353,1.093-0.651
				c0.306-0.298,0.555-0.655,0.747-1.071s0.317-0.885,0.376-1.404c0.049-0.432,0.028-0.881-0.063-1.348
				c-0.091-0.466-0.246-0.896-0.464-1.289s-0.503-0.728-0.853-1.005c-0.351-0.276-0.752-0.44-1.205-0.492
				c-0.419-0.048-0.863,0.011-1.332,0.177s-0.941,0.401-1.418,0.706c-0.476,0.305-0.958,0.658-1.445,1.058
				c-0.487,0.401-0.967,0.81-1.439,1.23c-0.508,0.433-1.02,0.866-1.536,1.297s-1.039,0.811-1.569,1.136s-1.06,0.58-1.59,0.766
				c-0.531,0.185-1.047,0.249-1.55,0.191c-0.771-0.088-1.408-0.389-1.909-0.902c-0.502-0.513-0.892-1.118-1.168-1.815
				c-0.277-0.698-0.451-1.441-0.523-2.229c-0.071-0.788-0.069-1.511,0.006-2.169c0.103-0.899,0.308-1.735,0.617-2.506
				c0.006-0.052,0.043-0.074,0.109-0.066c0.531,0.113,1.061,0.23,1.59,0.352c0.53,0.122,1.057,0.257,1.584,0.404
				c0.034,0.004,0.063,0.012,0.086,0.023c0.024,0.012,0.053,0.019,0.087,0.023c0.05,0.006,0.076,0.04,0.078,0.101
				s-0.024,0.098-0.077,0.109c-0.412,0.041-0.804,0.132-1.177,0.273c-0.373,0.141-0.704,0.332-0.995,0.57
				c-0.29,0.239-0.535,0.527-0.735,0.863c-0.199,0.337-0.324,0.722-0.374,1.154c-0.051,0.45-0.023,0.878,0.083,1.285
				c0.106,0.407,0.274,0.768,0.5,1.083c0.228,0.315,0.517,0.576,0.866,0.783c0.351,0.207,0.744,0.334,1.179,0.384
				c0.453,0.052,0.887,0.001,1.304-0.153c0.417-0.154,0.832-0.369,1.246-0.647c0.414-0.277,0.825-0.607,1.234-0.99
				s0.815-0.779,1.218-1.189c0.458-0.438,0.919-0.877,1.385-1.315c0.466-0.438,0.947-0.821,1.443-1.15
				c0.496-0.329,1.018-0.581,1.564-0.755c0.546-0.174,1.129-0.226,1.75-0.155C205.062,102.307,205.763,102.606,206.358,103.112z"/>
			
				<path fill="#1D71B8" stroke="#1D71B8" stroke-width="0.5" stroke-linecap="round" stroke-linejoin="round" stroke-miterlimit="10" d="
				M208.286,93.376c0.34,0.137,0.692,0.277,1.057,0.419c0.049,0.012,0.065,0.052,0.049,0.12l0.018,0.031
				c0.016,0.148,0.014,0.264-0.007,0.348c-0.095,0.389-0.195,0.782-0.301,1.177s-0.206,0.788-0.301,1.177
				c-0.083,0.338-0.167,0.667-0.254,0.986c-0.086,0.32-0.171,0.649-0.254,0.987c-0.112,0.457-0.22,0.919-0.326,1.386
				c-0.105,0.468-0.206,0.932-0.301,1.393l-0.197-0.048c0.062-0.254,0.06-0.474-0.008-0.661c-0.067-0.187-0.172-0.343-0.315-0.467
				s-0.314-0.225-0.513-0.3c-0.198-0.075-0.404-0.14-0.618-0.191l-10.227-2.501c-0.328-0.08-0.561-0.052-0.698,0.085
				c-0.137,0.137-0.262,0.29-0.373,0.46c-0.057,0.094-0.123,0.198-0.195,0.315c-0.071,0.117-0.166,0.233-0.28,0.348
				c-0.041,0.026-0.081,0.03-0.12,0.011c-0.038-0.019-0.052-0.053-0.04-0.104l1.769-7.233c-0.017-0.075-0.027-0.154-0.033-0.237
				c-0.006-0.082-0.017-0.161-0.034-0.237c-0.012-0.093,0.031-0.127,0.129-0.103c0.415,0.155,0.796,0.316,1.146,0.482
				s0.703,0.338,1.06,0.514c0.045,0.029,0.057,0.073,0.034,0.129c-0.023,0.058-0.059,0.08-0.108,0.068
				c-0.582-0.106-1.009,0.005-1.28,0.333c-0.271,0.329-0.473,0.763-0.605,1.305l-0.49,2.005l5.04,1.232l0.72-2.944
				c0.021-0.085,0.023-0.201,0.007-0.348s-0.032-0.294-0.048-0.442c-0.053-0.21-0.082-0.415-0.085-0.612
				c-0.012-0.093,0.031-0.127,0.129-0.103c0.192,0.065,0.4,0.138,0.624,0.22c0.224,0.082,0.429,0.164,0.617,0.245
				c0.188,0.083,0.388,0.158,0.596,0.227c0.209,0.069,0.408,0.145,0.596,0.226c0.049,0.012,0.077,0.042,0.083,0.088
				c0.006,0.046-0.011,0.083-0.053,0.108c-0.103,0.065-0.198,0.1-0.287,0.105c-0.088,0.005-0.185,0.013-0.292,0.023
				c-0.107,0.01-0.213,0.02-0.32,0.029c-0.106,0.01-0.211,0.047-0.314,0.111c-0.103,0.065-0.202,0.206-0.299,0.424
				c-0.097,0.218-0.189,0.456-0.278,0.712c-0.088,0.257-0.164,0.512-0.226,0.766c-0.063,0.253-0.11,0.448-0.143,0.583l-0.186,0.761
				l5.064,1.238c0.423-0.166,0.786-0.458,1.087-0.877c0.302-0.419,0.507-0.849,0.615-1.289c0.145-0.593,0.117-1.132-0.085-1.622
				c-0.202-0.489-0.565-0.869-1.089-1.141l0.099-0.191C207.598,93.083,207.946,93.239,208.286,93.376z"/>
			
				<path fill="#1D71B8" stroke="#1D71B8" stroke-width="0.5" stroke-linecap="round" stroke-linejoin="round" stroke-miterlimit="10" d="
				M214.555,80.1c-0.04,0.329-0.112,0.64-0.22,0.935c-0.179,0.491-0.426,0.901-0.744,1.23c-0.317,0.33-0.667,0.601-1.051,0.813
				c-0.382,0.213-0.797,0.391-1.245,0.534c-0.447,0.143-0.898,0.271-1.352,0.383c-0.417,0.108-0.833,0.229-1.25,0.365
				c-0.417,0.136-0.813,0.307-1.185,0.514c-0.372,0.208-0.701,0.458-0.988,0.752c-0.287,0.294-0.51,0.662-0.671,1.104
				c-0.048,0.131-0.095,0.262-0.143,0.393c-0.042,0.115-0.071,0.244-0.087,0.386l3.377,1.23c0.46,0.168,0.905,0.167,1.333-0.001
				c0.43-0.168,0.754-0.48,0.975-0.938l0.19,0.07c-0.169,0.365-0.333,0.727-0.49,1.086c-0.158,0.359-0.306,0.728-0.443,1.104
				c-0.138,0.376-0.254,0.747-0.35,1.11c-0.097,0.364-0.19,0.742-0.279,1.136c-0.002,0.055-0.035,0.085-0.1,0.089
				c-0.064,0.005-0.103-0.023-0.117-0.084c-0.033-0.401-0.167-0.774-0.401-1.119c-0.233-0.345-0.533-0.583-0.897-0.716l-9.488-3.456
				c-0.365-0.133-0.735-0.115-1.111,0.054c-0.375,0.169-0.68,0.424-0.911,0.766c-0.034,0.043-0.077,0.051-0.13,0.022
				c-0.052-0.028-0.069-0.067-0.052-0.116l1.762-4.836c0.185-0.507,0.426-0.985,0.724-1.433c0.298-0.447,0.643-0.813,1.033-1.098
				c0.391-0.284,0.834-0.465,1.33-0.545c0.495-0.079,1.029-0.014,1.6,0.193c0.761,0.277,1.403,0.757,1.926,1.439
				c0.524,0.682,0.934,1.382,1.228,2.102c0.256-0.11,0.569-0.219,0.94-0.325c0.371-0.105,0.759-0.224,1.166-0.354
				c0.607-0.187,1.233-0.39,1.879-0.609c0.646-0.219,1.25-0.476,1.816-0.771c0.565-0.295,1.049-0.637,1.452-1.029
				c0.403-0.391,0.662-0.843,0.777-1.357l0.217-0.004C214.6,79.445,214.593,79.771,214.555,80.1z M202.115,81.826
				c-0.457-0.027-0.896,0.021-1.319,0.146c-0.423,0.125-0.806,0.328-1.151,0.61s-0.604,0.661-0.777,1.135
				c-0.072,0.196-0.131,0.397-0.179,0.603c-0.048,0.205-0.064,0.412-0.051,0.621l5.921,2.157c0.149-0.261,0.279-0.519,0.391-0.775
				c0.111-0.256,0.217-0.523,0.319-0.802c0.334-0.917,0.324-1.638-0.032-2.167c-0.355-0.528-0.961-0.948-1.817-1.26
				C203.006,81.942,202.572,81.853,202.115,81.826z"/>
			<path fill="#FFFFFF" stroke="#FFFFFF" stroke-width="0.75" stroke-miterlimit="10" d="M225.987,45.032
				c-0.062,0.519-0.092,1.112-0.092,1.779c0,0.667,0.029,1.36,0.087,2.078s0.145,1.397,0.263,2.039
				c0.117,0.641,0.252,1.211,0.404,1.708c0.153,0.498,0.324,0.853,0.516,1.066l2.765,3.096c0.135,0.151,0.296,0.24,0.482,0.265
				c0.187,0.026,0.381,0.021,0.584-0.013c0.203-0.034,0.405-0.096,0.606-0.185c0.201-0.088,0.377-0.179,0.53-0.27
				c0.05-0.022,0.092-0.008,0.125,0.041c0.033,0.05,0.03,0.092-0.009,0.127c-0.271,0.22-0.543,0.451-0.816,0.695
				c-0.26,0.232-0.52,0.464-0.779,0.696c-0.338,0.302-0.669,0.598-0.994,0.888c-0.312,0.279-0.619,0.576-0.921,0.891
				c-0.04,0.035-0.079,0.036-0.119,0.005c-0.041-0.032-0.052-0.078-0.036-0.138c0.143-0.285,0.223-0.594,0.24-0.927
				c0.018-0.333-0.08-0.619-0.293-0.858l-2.563-2.869c-0.157-0.176-0.478-0.365-0.961-0.566c-0.484-0.201-1.059-0.4-1.725-0.597
				s-1.373-0.38-2.12-0.55c-0.747-0.169-1.46-0.307-2.139-0.414c-0.679-0.106-1.282-0.167-1.81-0.182
				c-0.527-0.015-0.898,0.027-1.112,0.128c-0.05,0.022-0.091,0.009-0.125-0.042c-0.033-0.049-0.029-0.092,0.009-0.127
				c0.335-0.253,0.649-0.495,0.946-0.726c0.296-0.23,0.593-0.479,0.893-0.746c0.363-0.325,0.723-0.681,1.079-1.066
				c0.039-0.035,0.08-0.042,0.12-0.022c0.041,0.021,0.061,0.054,0.057,0.103c-0.002,0.024-0.005,0.027-0.01,0.009
				c-0.005-0.018-0.008-0.015-0.01,0.009c-0.021,0.133-0.041,0.262-0.055,0.389c-0.015,0.127,0.011,0.228,0.078,0.303
				c0.08,0.088,0.389,0.225,0.928,0.411c0.539,0.186,1.163,0.387,1.87,0.603c0.707,0.217,1.424,0.431,2.15,0.641
				c0.726,0.212,1.309,0.381,1.749,0.508c-0.045-0.208-0.103-0.52-0.169-0.935s-0.145-0.854-0.233-1.319
				c-0.08-0.403-0.163-0.849-0.249-1.338c-0.086-0.488-0.177-0.956-0.272-1.402c-0.096-0.446-0.189-0.833-0.281-1.158
				c-0.092-0.325-0.171-0.525-0.238-0.601c-0.102-0.113-0.222-0.175-0.36-0.187c-0.139-0.012-0.283,0.004-0.432,0.046
				c-0.061,0.01-0.105-0.013-0.131-0.068c-0.027-0.056-0.015-0.095,0.035-0.117c0.203-0.113,0.404-0.247,0.604-0.403
				c0.2-0.156,0.39-0.314,0.573-0.477c0.246-0.22,0.481-0.441,0.704-0.663c0.223-0.222,0.433-0.443,0.631-0.666
				c0.026-0.023,0.056-0.055,0.089-0.096c0.034-0.041,0.063-0.073,0.089-0.097l0.154,0.133
				C226.15,44.123,226.05,44.513,225.987,45.032z"/>
			
				<path fill="#BE1622" stroke="#BE1622" stroke-width="0.5" stroke-linecap="round" stroke-linejoin="round" stroke-miterlimit="10" d="
				M262.119,32.935c-0.123,0.751-0.365,1.451-0.724,2.098c-0.36,0.647-0.831,1.21-1.414,1.689c-0.583,0.479-1.266,0.804-2.049,0.972
				c-0.477,0.102-0.985,0.143-1.524,0.121c-0.055-0.005-0.085-0.042-0.091-0.109c-0.006-0.068,0.019-0.099,0.074-0.093
				c0.105-0.006,0.201-0.018,0.287-0.036c0.102-0.022,0.204-0.044,0.307-0.066c0.664-0.143,1.238-0.374,1.721-0.694
				c0.483-0.32,0.867-0.708,1.152-1.167c0.284-0.458,0.468-0.972,0.55-1.542c0.082-0.57,0.056-1.168-0.08-1.795
				c-0.121-0.561-0.331-1.102-0.63-1.625c-0.3-0.522-0.673-0.973-1.119-1.351c-0.447-0.378-0.952-0.653-1.515-0.826
				c-0.563-0.172-1.16-0.19-1.789-0.055c-0.58,0.125-1.164,0.389-1.754,0.792l3.181,14.771c0.167,0.775,0.457,1.295,0.871,1.56
				c0.413,0.265,1.032,0.326,1.856,0.183c0.051-0.011,0.084,0.017,0.099,0.083c0.014,0.066-0.004,0.104-0.056,0.116l-3.908,0.842
				c-0.392,0.084-0.783,0.169-1.175,0.253c-0.392,0.084-0.785,0.161-1.18,0.229c-0.051,0.011-0.087-0.011-0.108-0.068
				c-0.021-0.055-0.008-0.097,0.04-0.125c0.411-0.157,0.724-0.32,0.938-0.487c0.213-0.166,0.351-0.356,0.412-0.567
				c0.062-0.211,0.071-0.456,0.03-0.731c-0.042-0.276-0.105-0.612-0.19-1.007l-2.958-13.731c-0.054-0.248-0.166-0.46-0.338-0.639
				c-0.172-0.179-0.369-0.326-0.59-0.443c-0.222-0.116-0.462-0.202-0.724-0.258c-0.262-0.056-0.509-0.085-0.741-0.086
				c-0.055-0.005-0.083-0.034-0.085-0.085c-0.002-0.051,0.022-0.083,0.074-0.094c0.671-0.109,1.341-0.228,2.008-0.354
				c0.668-0.126,1.325-0.259,1.972-0.399l3.167-0.682c0.766-0.165,1.474-0.248,2.124-0.25c0.65-0.001,1.228,0.116,1.733,0.352
				c0.505,0.237,0.935,0.601,1.292,1.094c0.355,0.493,0.624,1.16,0.805,2.001C262.227,31.445,262.242,32.183,262.119,32.935z"/>
			
				<path fill="#BE1622" stroke="#BE1622" stroke-width="0.5" stroke-linecap="round" stroke-linejoin="round" stroke-miterlimit="10" d="
				M273.713,41.325c-0.035,0.366-0.07,0.743-0.104,1.133c0.003,0.05-0.031,0.077-0.101,0.081l-0.025,0.026
				c-0.137,0.057-0.25,0.088-0.335,0.092c-0.401,0.019-0.805,0.034-1.215,0.044c-0.409,0.011-0.814,0.025-1.214,0.044
				c-0.348,0.017-0.688,0.029-1.019,0.035c-0.331,0.007-0.67,0.019-1.019,0.036c-0.47,0.022-0.943,0.049-1.421,0.08
				c-0.478,0.031-0.952,0.066-1.421,0.105l-0.009-0.202c0.261-0.012,0.471-0.077,0.632-0.195c0.16-0.117,0.279-0.262,0.359-0.435
				c0.079-0.173,0.127-0.365,0.143-0.577c0.017-0.212,0.02-0.428,0.009-0.646l-0.497-10.517c-0.016-0.337-0.108-0.552-0.279-0.646
				s-0.352-0.169-0.547-0.227c-0.106-0.029-0.225-0.062-0.358-0.098c-0.132-0.035-0.271-0.092-0.414-0.17
				c-0.037-0.032-0.051-0.069-0.044-0.112c0.007-0.042,0.036-0.065,0.088-0.068l7.438-0.351c0.068-0.037,0.141-0.07,0.218-0.099
				c0.077-0.029,0.149-0.062,0.217-0.099c0.086-0.038,0.131-0.006,0.136,0.095c-0.032,0.44-0.078,0.853-0.138,1.235
				s-0.125,0.77-0.194,1.162c-0.015,0.051-0.052,0.075-0.114,0.069c-0.062-0.005-0.093-0.034-0.096-0.084
				c-0.063-0.588-0.29-0.966-0.681-1.134c-0.392-0.167-0.866-0.238-1.423-0.211l-2.062,0.097l0.245,5.183l3.027-0.143
				c0.087-0.004,0.199-0.035,0.336-0.092c0.137-0.057,0.273-0.114,0.41-0.171c0.187-0.11,0.375-0.195,0.564-0.254
				c0.085-0.038,0.13-0.006,0.135,0.095c-0.008,0.203-0.02,0.423-0.035,0.66c-0.015,0.237-0.035,0.458-0.06,0.662
				c-0.025,0.204-0.042,0.417-0.048,0.636c-0.007,0.22-0.023,0.432-0.048,0.636c0.002,0.05-0.018,0.085-0.061,0.104
				c-0.043,0.02-0.083,0.013-0.119-0.02c-0.091-0.08-0.152-0.162-0.182-0.245c-0.03-0.083-0.065-0.174-0.104-0.273
				c-0.04-0.1-0.079-0.199-0.118-0.299c-0.041-0.099-0.105-0.188-0.196-0.269s-0.255-0.136-0.492-0.167s-0.491-0.053-0.762-0.065
				c-0.271-0.012-0.536-0.013-0.798,0c-0.26,0.012-0.46,0.021-0.6,0.028l-0.783,0.037l0.246,5.208
				c0.279,0.358,0.661,0.623,1.149,0.794c0.487,0.171,0.958,0.246,1.41,0.225c0.609-0.028,1.12-0.209,1.531-0.541
				c0.412-0.332,0.674-0.787,0.786-1.367l0.211,0.041C273.8,40.583,273.749,40.961,273.713,41.325z"/>
			
				<path fill="#BE1622" stroke="#BE1622" stroke-width="0.5" stroke-linecap="round" stroke-linejoin="round" stroke-miterlimit="10" d="
				M288.018,44.22c-0.329,0.038-0.648,0.039-0.96,0.002c-0.52-0.061-0.976-0.208-1.37-0.44c-0.393-0.233-0.737-0.511-1.032-0.835
				c-0.296-0.323-0.564-0.686-0.807-1.088c-0.242-0.402-0.471-0.811-0.685-1.227c-0.201-0.38-0.416-0.758-0.644-1.133
				c-0.229-0.375-0.485-0.719-0.773-1.033c-0.287-0.314-0.607-0.577-0.96-0.788c-0.353-0.211-0.762-0.345-1.229-0.399
				c-0.14-0.016-0.277-0.033-0.416-0.048c-0.121-0.015-0.253-0.013-0.395,0.004l-0.419,3.57c-0.057,0.486,0.046,0.918,0.308,1.297
				c0.263,0.379,0.642,0.623,1.139,0.732l-0.023,0.201c-0.395-0.08-0.785-0.155-1.171-0.226c-0.387-0.071-0.778-0.13-1.177-0.176
				c-0.398-0.047-0.784-0.075-1.16-0.085s-0.766-0.014-1.17-0.01c-0.054,0.011-0.09-0.015-0.109-0.077
				c-0.019-0.062,0-0.106,0.056-0.133c0.382-0.125,0.714-0.341,0.996-0.648c0.281-0.307,0.445-0.652,0.49-1.038l1.176-10.029
				c0.046-0.385-0.058-0.741-0.309-1.068c-0.251-0.327-0.569-0.564-0.955-0.711c-0.05-0.022-0.067-0.063-0.052-0.121
				c0.015-0.058,0.049-0.083,0.102-0.078l5.111,0.6c0.536,0.063,1.057,0.188,1.562,0.375s0.939,0.438,1.306,0.752
				s0.646,0.705,0.837,1.168c0.19,0.464,0.252,0.998,0.181,1.601c-0.095,0.804-0.414,1.541-0.956,2.207
				c-0.543,0.667-1.13,1.228-1.763,1.679c0.167,0.224,0.345,0.504,0.533,0.84c0.188,0.336,0.394,0.688,0.613,1.053
				c0.321,0.547,0.663,1.11,1.025,1.687c0.362,0.578,0.751,1.107,1.168,1.59c0.417,0.482,0.862,0.874,1.336,1.176
				c0.473,0.302,0.973,0.45,1.5,0.443l0.055,0.21C288.665,44.114,288.347,44.182,288.018,44.22z M283.471,32.513
				c-0.078-0.451-0.227-0.868-0.444-1.25c-0.219-0.382-0.505-0.709-0.858-0.98c-0.354-0.271-0.782-0.436-1.284-0.494
				c-0.208-0.024-0.416-0.036-0.627-0.036c-0.21,0.001-0.416,0.032-0.616,0.094l-0.733,6.259c0.287,0.085,0.569,0.152,0.845,0.201
				c0.274,0.049,0.559,0.091,0.853,0.125c0.969,0.113,1.669-0.063,2.102-0.531c0.432-0.468,0.701-1.153,0.807-2.059
				C283.563,33.407,283.55,32.964,283.471,32.513z"/>
			
				<path fill="#BE1622" stroke="#BE1622" stroke-width="0.5" stroke-linecap="round" stroke-linejoin="round" stroke-miterlimit="10" d="
				M307.523,50.032c-0.66-0.222-1.329-0.447-2.006-0.676c-0.66-0.222-1.307-0.458-1.939-0.707c-0.1-0.033-0.119-0.084-0.059-0.153
				c0.026-0.026,0.05-0.054,0.069-0.083c0.019-0.029,0.042-0.057,0.069-0.083c0.098-0.127,0.196-0.254,0.295-0.382
				c0.098-0.127,0.168-0.254,0.211-0.383c0.308-0.911,0.564-1.826,0.772-2.744s0.405-1.844,0.592-2.778
				c0.117-0.566,0.218-1.07,0.303-1.514s0.205-0.95,0.361-1.521c-1.021,0.956-2.017,1.92-2.987,2.893
				c-0.972,0.973-1.947,1.961-2.929,2.966c-0.333,0.333-0.661,0.664-0.981,0.991c-0.322,0.328-0.649,0.658-0.982,0.991
				c-0.027,0.027-0.058,0.034-0.09,0.023c-0.034-0.011-0.062-0.038-0.084-0.082c-0.414-1.279-0.719-2.543-0.913-3.793
				c-0.195-1.25-0.359-2.493-0.494-3.731c-0.075-0.648-0.14-1.235-0.192-1.761c-0.053-0.525-0.129-1.107-0.226-1.745
				c-0.184,0.383-0.364,0.754-0.54,1.113c-0.176,0.36-0.352,0.715-0.524,1.065c-0.466,0.947-0.913,1.891-1.341,2.833
				c-0.428,0.942-0.811,1.917-1.15,2.923c-0.097,0.289-0.089,0.509,0.024,0.663c0.113,0.154,0.265,0.307,0.452,0.459
				c0.055,0.055,0.134,0.122,0.236,0.2c0.102,0.079,0.166,0.132,0.194,0.159c0.039,0.049,0.042,0.094,0.009,0.136
				c-0.033,0.042-0.073,0.055-0.123,0.039c-0.231-0.078-0.456-0.158-0.677-0.241c-0.22-0.083-0.443-0.171-0.669-0.265
				c-0.226-0.094-0.453-0.184-0.681-0.27c-0.229-0.086-0.458-0.168-0.689-0.246c-0.165-0.056-0.33-0.111-0.495-0.167
				c-0.148-0.05-0.319-0.09-0.512-0.119c-0.055-0.001-0.08-0.036-0.075-0.105c0.005-0.069,0.035-0.104,0.09-0.103
				c0.144,0.012,0.248,0.03,0.313,0.052c0.192,0.029,0.361,0.046,0.507,0.051c0.146,0.004,0.306-0.062,0.48-0.199
				c0.05-0.037,0.165-0.229,0.347-0.578c0.182-0.348,0.405-0.793,0.671-1.336c0.266-0.542,0.564-1.159,0.898-1.848
				c0.333-0.689,0.667-1.395,1.003-2.119c0.335-0.724,0.667-1.436,0.995-2.135c0.327-0.7,0.627-1.342,0.897-1.928
				c0.243-0.505,0.45-0.957,0.621-1.353c0.17-0.396,0.302-0.677,0.395-0.842c0.016-0.048,0.046-0.069,0.089-0.063
				c0.044,0.006,0.077,0.03,0.1,0.074c0.129,0.274,0.27,0.781,0.426,1.519c0.156,0.738,0.307,1.586,0.453,2.543
				c0.146,0.957,0.293,1.968,0.439,3.032c0.147,1.064,0.278,2.053,0.394,2.964c0.093,0.654,0.162,1.212,0.209,1.672
				c0.047,0.461,0.099,0.853,0.156,1.174c0.437-0.423,0.892-0.888,1.366-1.396c0.474-0.508,0.943-1.013,1.407-1.516
				c1.014-1.101,2.066-2.206,3.157-3.316c1.091-1.11,2.175-2.063,3.252-2.857c0.043-0.021,0.08-0.022,0.11-0.003
				c0.03,0.02,0.037,0.053,0.021,0.101c-0.032,0.203-0.093,0.481-0.185,0.833c-0.091,0.353-0.188,0.761-0.288,1.225
				c-0.15,0.608-0.307,1.277-0.47,2.005c-0.162,0.729-0.326,1.475-0.491,2.238c-0.166,0.764-0.324,1.507-0.477,2.23
				c-0.151,0.723-0.279,1.388-0.382,1.994c-0.104,0.606-0.181,1.119-0.229,1.539s-0.049,0.691,0.002,0.815
				c0.095,0.316,0.213,0.539,0.354,0.667c0.142,0.127,0.321,0.246,0.542,0.356c0.104,0.071,0.218,0.131,0.339,0.181
				s0.236,0.129,0.348,0.237L307.523,50.032z"/>
			
				<path fill="#BE1622" stroke="#BE1622" stroke-width="0.5" stroke-linecap="round" stroke-linejoin="round" stroke-miterlimit="10" d="
				M319.29,58.047c-0.171-0.137-0.353-0.28-0.544-0.431c-0.105-0.093-0.218-0.184-0.335-0.274c-0.117-0.09-0.241-0.179-0.371-0.267
				c-0.331-0.226-0.673-0.437-1.022-0.634c-0.351-0.198-0.7-0.395-1.051-0.592c-0.043-0.03-0.059-0.07-0.044-0.122
				s0.053-0.076,0.114-0.075l1.113,0.175c0.201-0.822,0.384-1.641,0.55-2.457c0.165-0.816,0.353-1.643,0.564-2.479l-3.35-2.277
				c-0.195,0.132-0.482,0.33-0.861,0.593c-0.378,0.263-0.764,0.542-1.153,0.837c-0.391,0.295-0.753,0.58-1.086,0.853
				c-0.334,0.273-0.552,0.486-0.656,0.64c-0.143,0.209-0.142,0.409,0.003,0.599s0.294,0.358,0.447,0.503l-0.113,0.167
				c-0.255-0.214-0.52-0.43-0.793-0.646c-0.274-0.217-0.555-0.423-0.843-0.619c-0.288-0.196-0.584-0.381-0.886-0.557
				c-0.303-0.175-0.606-0.346-0.914-0.515c-0.053-0.015-0.063-0.053-0.033-0.114s0.072-0.083,0.126-0.068
				c0.857,0.441,1.688,0.414,2.488-0.082l-0.014,0.021c1.11-0.734,2.206-1.479,3.288-2.232c1.081-0.754,2.16-1.52,3.237-2.298
				c0.733-0.521,1.457-1.043,2.173-1.567c0.714-0.525,1.444-1.042,2.193-1.554c0.043-0.032,0.086-0.034,0.129-0.004
				c0.044,0.029,0.058,0.07,0.044,0.122c-0.062,0.245-0.115,0.487-0.164,0.73c-0.05,0.242-0.104,0.485-0.165,0.729
				c-0.472,1.965-0.924,3.953-1.355,5.965c-0.431,2.012-0.749,4.052-0.952,6.117c-0.046,0.438,0.018,0.818,0.188,1.139
				c0.172,0.32,0.421,0.612,0.748,0.875l-0.114,0.167C319.656,58.306,319.461,58.183,319.29,58.047z M320.03,44.716
				c-0.748,0.573-1.473,1.136-2.175,1.688c-0.703,0.553-1.447,1.112-2.232,1.68l2.787,1.896L320.03,44.716z"/>
			
				<path fill="#BE1622" stroke="#BE1622" stroke-width="0.5" stroke-linecap="round" stroke-linejoin="round" stroke-miterlimit="10" d="
				M340.846,60.296c0-0.012-0.019-0.025-0.054-0.038c-0.219-0.128-0.458-0.254-0.719-0.376c-0.261-0.124-0.482-0.097-0.664,0.08
				l-4.355,4.27l-0.744,0.723c-0.702,0.682-1.407,1.343-2.114,1.982c-0.709,0.639-1.438,1.263-2.188,1.871
				c-0.024,0.023-0.061,0.029-0.108,0.015c-0.049-0.014-0.073-0.044-0.073-0.093c-0.087-1.081-0.134-2.202-0.142-3.36
				c-0.008-1.158,0.006-2.318,0.039-3.481c0.035-1.163,0.085-2.322,0.149-3.479c0.065-1.155,0.139-2.272,0.223-3.349
				c0.011-0.352,0.032-0.675,0.062-0.971s0.051-0.62,0.063-0.971c-0.363,0.279-0.697,0.567-1,0.86
				c-0.459,0.447-0.913,0.9-1.36,1.359c-0.448,0.459-0.89,0.925-1.325,1.396s-0.877,0.938-1.324,1.397
				c-0.448,0.459-0.908,0.918-1.38,1.377c-0.206,0.2-0.354,0.38-0.444,0.542c-0.091,0.161-0.145,0.305-0.162,0.431
				c-0.019,0.127-0.004,0.246,0.045,0.356c0.049,0.111,0.11,0.215,0.184,0.314c0.072,0.124,0.142,0.25,0.209,0.379
				c0.066,0.129,0.119,0.31,0.156,0.541c-0.001,0.048-0.02,0.084-0.055,0.107c-0.037,0.023-0.073,0.016-0.109-0.021
				c-0.109-0.137-0.216-0.271-0.319-0.401c-0.103-0.13-0.209-0.264-0.318-0.4c-0.146-0.199-0.301-0.394-0.465-0.587
				s-0.331-0.377-0.501-0.552c-0.218-0.225-0.458-0.441-0.719-0.649s-0.524-0.413-0.791-0.615c-0.049-0.026-0.064-0.065-0.046-0.119
				c0.018-0.054,0.051-0.08,0.1-0.079c0.182,0.018,0.336,0.043,0.464,0.078c0.127,0.034,0.245,0.071,0.354,0.111
				c0.218,0.079,0.448,0.116,0.69,0.112c0.242-0.005,0.503-0.143,0.781-0.413l8.494-8.254l0.437-0.132
				c0.036-0.011,0.072-0.01,0.109,0.003c0.035,0.014,0.048,0.038,0.036,0.074c-0.045,2.69-0.11,5.316-0.196,7.878
				c-0.088,2.562-0.201,5.187-0.342,7.874l0.054-0.053c0.557-0.541,1.104-1.079,1.644-1.615c0.538-0.535,1.085-1.085,1.642-1.65
				c0.509-0.519,1.05-1.069,1.625-1.652c0.574-0.583,1.122-1.126,1.643-1.632c0.205-0.2,0.351-0.383,0.436-0.551
				c0.084-0.167,0.123-0.32,0.117-0.46c-0.007-0.14-0.04-0.265-0.101-0.376c-0.062-0.111-0.128-0.216-0.2-0.315
				c-0.086-0.111-0.158-0.217-0.22-0.315c-0.061-0.1-0.091-0.209-0.091-0.33c0-0.049,0.027-0.082,0.082-0.098
				c0.055-0.017,0.087-0.007,0.1,0.03c0.243,0.323,0.486,0.609,0.729,0.859c0.256,0.262,0.511,0.525,0.766,0.787
				c0.157,0.162,0.321,0.326,0.491,0.488c0.17,0.163,0.333,0.338,0.491,0.524c0.062,0.062,0.125,0.134,0.192,0.215
				c0.065,0.081,0.129,0.152,0.19,0.215l-0.108,0.179C340.864,60.321,340.846,60.308,340.846,60.296z"/>
			
				<path fill="#BE1622" stroke="#BE1622" stroke-width="0.5" stroke-linecap="round" stroke-linejoin="round" stroke-miterlimit="10" d="
				M336.839,76.873c-0.335,0.15-0.68,0.306-1.036,0.469c-0.042,0.026-0.083,0.011-0.119-0.048l-0.035-0.009
				c-0.117-0.091-0.199-0.173-0.246-0.247c-0.214-0.339-0.427-0.683-0.638-1.034c-0.212-0.351-0.425-0.696-0.639-1.034
				c-0.187-0.295-0.364-0.584-0.533-0.868c-0.17-0.284-0.348-0.574-0.533-0.868c-0.252-0.397-0.509-0.797-0.771-1.197
				c-0.264-0.401-0.527-0.795-0.793-1.184l0.171-0.108c0.14,0.221,0.3,0.372,0.481,0.454c0.181,0.081,0.366,0.114,0.556,0.097
				c0.188-0.017,0.38-0.07,0.572-0.161c0.191-0.09,0.381-0.194,0.565-0.312l8.901-5.623c0.285-0.18,0.427-0.368,0.424-0.562
				s-0.027-0.39-0.072-0.588c-0.027-0.106-0.058-0.226-0.092-0.359c-0.034-0.133-0.053-0.281-0.056-0.444
				c0.009-0.047,0.034-0.079,0.075-0.094c0.039-0.015,0.074-0.001,0.103,0.043l3.977,6.296c0.065,0.041,0.13,0.088,0.193,0.141
				s0.128,0.1,0.194,0.14c0.074,0.056,0.069,0.111-0.017,0.165c-0.399,0.19-0.779,0.353-1.142,0.49
				c-0.363,0.136-0.732,0.271-1.106,0.405c-0.053,0.012-0.091-0.009-0.116-0.065c-0.026-0.056-0.017-0.098,0.026-0.125
				c0.48-0.345,0.696-0.729,0.648-1.152c-0.048-0.423-0.221-0.87-0.518-1.342l-1.103-1.745l-4.387,2.771l1.619,2.562
				c0.047,0.074,0.129,0.156,0.246,0.247c0.116,0.091,0.233,0.182,0.352,0.272c0.188,0.107,0.354,0.229,0.499,0.364
				c0.075,0.056,0.069,0.11-0.016,0.165c-0.181,0.093-0.378,0.192-0.592,0.296c-0.213,0.104-0.415,0.195-0.605,0.274
				c-0.189,0.079-0.382,0.169-0.577,0.272c-0.194,0.103-0.387,0.193-0.576,0.272c-0.043,0.027-0.083,0.026-0.12-0.001
				c-0.038-0.028-0.052-0.065-0.042-0.113c0.025-0.119,0.065-0.212,0.123-0.279c0.058-0.067,0.12-0.143,0.187-0.226
				c0.067-0.084,0.135-0.167,0.201-0.251c0.067-0.083,0.113-0.185,0.138-0.303c0.024-0.119-0.008-0.289-0.098-0.51
				s-0.196-0.453-0.319-0.695c-0.123-0.242-0.254-0.473-0.394-0.694c-0.14-0.221-0.247-0.391-0.32-0.508l-0.419-0.663l-4.407,2.785
				c-0.175,0.419-0.216,0.883-0.124,1.392c0.091,0.508,0.259,0.954,0.5,1.337c0.326,0.516,0.734,0.87,1.227,1.064
				c0.491,0.194,1.018,0.197,1.577,0.008l0.068,0.204C337.528,76.582,337.174,76.723,336.839,76.873z"/>
			
				<path fill="#BE1622" stroke="#BE1622" stroke-width="0.5" stroke-linecap="round" stroke-linejoin="round" stroke-miterlimit="10" d="
				M342.208,89.666c-0.417,0.043-0.824,0.037-1.223-0.018c-0.032,0.012-0.057-0.007-0.074-0.056
				c-0.42-0.736-0.812-1.474-1.177-2.211s-0.693-1.498-0.985-2.281c-0.366-0.979-0.546-1.944-0.54-2.895
				c0.006-0.95,0.181-1.834,0.525-2.649c0.344-0.816,0.847-1.543,1.51-2.181c0.662-0.638,1.467-1.133,2.416-1.487
				c1.123-0.418,2.184-0.615,3.185-0.588c1,0.026,1.917,0.251,2.75,0.675c0.834,0.423,1.573,1.031,2.219,1.822
				c0.646,0.791,1.18,1.749,1.6,2.875c0.171,0.457,0.313,0.91,0.427,1.361c0.113,0.45,0.218,0.899,0.313,1.347
				c0.074,0.344,0.149,0.678,0.226,1.003c0.075,0.325,0.156,0.648,0.239,0.97c0.024,0.065,0.005,0.11-0.058,0.133
				c-0.566,0.173-1.133,0.33-1.703,0.468s-1.131,0.263-1.684,0.376c-0.053,0.001-0.088-0.022-0.107-0.071
				c-0.019-0.049-0.007-0.091,0.035-0.125c0.491-0.277,0.887-0.615,1.188-1.015s0.514-0.833,0.638-1.297
				c0.124-0.465,0.166-0.955,0.127-1.47s-0.153-1.026-0.342-1.532c-0.316-0.849-0.734-1.572-1.254-2.167
				c-0.52-0.597-1.109-1.055-1.77-1.376c-0.659-0.321-1.376-0.491-2.148-0.51c-0.772-0.019-1.569,0.125-2.392,0.432
				c-0.869,0.324-1.644,0.794-2.323,1.411c-0.68,0.616-1.222,1.324-1.625,2.125s-0.645,1.663-0.724,2.585
				c-0.08,0.922,0.054,1.848,0.401,2.778c0.194,0.522,0.418,0.954,0.673,1.297c0.253,0.342,0.542,0.62,0.865,0.834
				c0.322,0.214,0.691,0.37,1.105,0.466s0.89,0.166,1.427,0.207c0.061,0.015,0.09,0.046,0.089,0.092
				c-0.001,0.047-0.021,0.087-0.062,0.121c-0.09,0.051-0.18,0.099-0.271,0.143c-0.092,0.043-0.193,0.086-0.304,0.127
				C343.021,89.529,342.624,89.622,342.208,89.666z"/>
			
				<path fill="#BE1622" stroke="#BE1622" stroke-width="0.5" stroke-linecap="round" stroke-linejoin="round" stroke-miterlimit="10" d="
				M343.394,99.059c-0.366,0.005-0.745,0.012-1.137,0.021c-0.05,0.008-0.081-0.023-0.092-0.091l-0.028-0.022
				c-0.072-0.13-0.115-0.238-0.129-0.324c-0.063-0.396-0.122-0.796-0.177-1.202c-0.057-0.406-0.115-0.807-0.178-1.202
				c-0.055-0.344-0.104-0.68-0.146-1.009c-0.044-0.328-0.093-0.665-0.146-1.008c-0.074-0.465-0.152-0.933-0.235-1.405
				c-0.084-0.472-0.17-0.938-0.26-1.401l0.2-0.032c0.04,0.259,0.128,0.46,0.263,0.607c0.134,0.146,0.291,0.249,0.471,0.309
				c0.18,0.06,0.377,0.086,0.59,0.079c0.211-0.007,0.426-0.028,0.644-0.062l10.398-1.645c0.334-0.053,0.537-0.169,0.611-0.348
				s0.13-0.369,0.166-0.568c0.018-0.109,0.036-0.231,0.058-0.366c0.021-0.136,0.063-0.279,0.124-0.43
				c0.028-0.04,0.063-0.059,0.106-0.056c0.043,0.002,0.068,0.029,0.077,0.081l1.163,7.355c0.045,0.063,0.086,0.132,0.122,0.205
				c0.038,0.074,0.078,0.142,0.123,0.206c0.046,0.081,0.021,0.129-0.08,0.145c-0.441,0.017-0.855,0.016-1.243-0.001
				c-0.387-0.019-0.779-0.041-1.176-0.065c-0.053-0.01-0.08-0.045-0.081-0.106s0.023-0.097,0.073-0.104
				c0.578-0.127,0.928-0.394,1.052-0.801c0.124-0.407,0.142-0.886,0.055-1.437l-0.322-2.04l-5.125,0.811l0.474,2.993
				c0.014,0.086,0.057,0.194,0.128,0.324c0.072,0.129,0.144,0.259,0.216,0.389c0.13,0.173,0.234,0.35,0.314,0.532
				c0.048,0.08,0.021,0.129-0.079,0.145c-0.203,0.014-0.423,0.027-0.66,0.038c-0.238,0.011-0.458,0.015-0.664,0.013
				c-0.206-0.003-0.419,0.003-0.638,0.021c-0.219,0.017-0.432,0.024-0.637,0.021c-0.05,0.008-0.087-0.008-0.11-0.049
				s-0.021-0.081,0.007-0.12c0.069-0.099,0.144-0.168,0.224-0.207c0.079-0.039,0.166-0.084,0.261-0.134
				c0.095-0.051,0.189-0.101,0.284-0.151c0.094-0.05,0.176-0.125,0.246-0.224c0.069-0.1,0.106-0.268,0.111-0.507
				c0.005-0.239-0.001-0.494-0.019-0.764c-0.017-0.271-0.046-0.535-0.087-0.793c-0.041-0.258-0.072-0.456-0.094-0.594l-0.122-0.774
				l-5.149,0.815c-0.326,0.316-0.548,0.726-0.664,1.229c-0.116,0.504-0.141,0.979-0.069,1.426c0.095,0.602,0.33,1.089,0.705,1.462
				c0.375,0.373,0.856,0.583,1.445,0.631l-0.018,0.214C344.142,99.064,343.76,99.053,343.394,99.059z"/>
			
				<path fill="#BE1622" stroke="#BE1622" stroke-width="0.5" stroke-linecap="round" stroke-linejoin="round" stroke-miterlimit="10" d="
				M341.813,113.547c-0.067-0.324-0.097-0.643-0.088-0.956c0.014-0.522,0.119-0.989,0.315-1.402
				c0.197-0.413,0.443-0.781,0.739-1.104c0.295-0.323,0.633-0.623,1.012-0.9c0.378-0.277,0.765-0.542,1.161-0.792
				c0.359-0.234,0.717-0.482,1.07-0.743c0.353-0.261,0.673-0.548,0.96-0.863c0.287-0.315,0.52-0.657,0.698-1.027
				c0.179-0.37,0.274-0.79,0.287-1.26c0.004-0.14,0.008-0.279,0.012-0.418c0.003-0.122-0.011-0.253-0.04-0.393l-3.594-0.096
				c-0.489-0.014-0.91,0.128-1.264,0.423c-0.354,0.295-0.563,0.695-0.627,1.199l-0.203-0.005c0.045-0.4,0.085-0.795,0.121-1.186
				c0.035-0.391,0.059-0.787,0.069-1.188c0.012-0.401,0.005-0.789-0.019-1.164c-0.024-0.375-0.056-0.764-0.096-1.166
				c-0.016-0.053,0.007-0.091,0.066-0.116s0.104-0.01,0.138,0.043c0.159,0.37,0.403,0.681,0.734,0.934s0.69,0.385,1.078,0.396
				l10.095,0.271c0.388,0.01,0.733-0.124,1.036-0.403s0.511-0.618,0.622-1.016c0.018-0.052,0.057-0.073,0.115-0.063
				c0.06,0.01,0.088,0.042,0.087,0.094l-0.139,5.146c-0.015,0.54-0.092,1.069-0.232,1.588s-0.352,0.975-0.632,1.369
				c-0.28,0.393-0.644,0.705-1.089,0.938s-0.971,0.34-1.578,0.323c-0.81-0.021-1.571-0.273-2.283-0.754
				c-0.714-0.481-1.324-1.016-1.831-1.604c-0.207,0.187-0.47,0.389-0.788,0.606s-0.649,0.453-0.994,0.705
				c-0.516,0.369-1.045,0.76-1.588,1.173c-0.543,0.412-1.036,0.848-1.479,1.306c-0.443,0.459-0.793,0.937-1.051,1.437
				c-0.259,0.498-0.361,1.009-0.308,1.533l-0.204,0.073C341.979,114.183,341.881,113.871,341.813,113.547z M353.066,107.969
				c0.441-0.119,0.843-0.304,1.204-0.555c0.361-0.252,0.661-0.566,0.899-0.943c0.237-0.377,0.363-0.818,0.376-1.323
				c0.007-0.209-0.001-0.418-0.021-0.628c-0.02-0.209-0.069-0.412-0.148-0.605l-6.299-0.169c-0.059,0.294-0.101,0.581-0.125,0.859
				c-0.024,0.278-0.04,0.565-0.048,0.861c-0.026,0.975,0.212,1.657,0.717,2.045c0.504,0.389,1.212,0.595,2.123,0.62
				C352.183,108.141,352.623,108.088,353.066,107.969z"/>
		</g>
	</g>
	<g>
		<g>
			
				<path fill="#FFFFFF" stroke="#FFFFFF" stroke-width="0.5" stroke-linecap="round" stroke-linejoin="round" stroke-miterlimit="10" d="
				M226.896,157.773c-0.698,0.258-1.408,0.39-2.131,0.397c-0.723,0.006-1.429-0.122-2.117-0.386
				c-0.688-0.265-1.293-0.688-1.814-1.272c-0.318-0.355-0.597-0.768-0.838-1.235c-0.022-0.05-0.005-0.093,0.05-0.13
				c0.055-0.037,0.093-0.032,0.114,0.018c0.056,0.087,0.112,0.162,0.169,0.226c0.068,0.076,0.136,0.152,0.204,0.229
				c0.442,0.495,0.915,0.87,1.42,1.127c0.505,0.256,1.021,0.395,1.547,0.416c0.526,0.021,1.051-0.072,1.576-0.278
				c0.523-0.205,1.019-0.516,1.487-0.934c0.417-0.373,0.777-0.813,1.076-1.32c0.299-0.505,0.501-1.04,0.607-1.603
				s0.096-1.124-0.029-1.685c-0.126-0.562-0.398-1.076-0.817-1.546c-0.385-0.433-0.892-0.802-1.519-1.108l-11.012,9.83
				c-0.579,0.517-0.88,1.014-0.906,1.493c-0.026,0.479,0.221,1.034,0.741,1.665c0.034,0.038,0.026,0.079-0.023,0.123
				c-0.049,0.044-0.091,0.046-0.125,0.009l-2.601-2.914c-0.261-0.292-0.521-0.584-0.782-0.876c-0.261-0.292-0.516-0.589-0.764-0.893
				c-0.034-0.037-0.033-0.079,0.005-0.125c0.037-0.045,0.079-0.053,0.125-0.026c0.333,0.274,0.621,0.461,0.866,0.562
				c0.245,0.102,0.472,0.127,0.682,0.077s0.421-0.16,0.636-0.328c0.214-0.169,0.469-0.385,0.764-0.647l10.238-9.14
				c0.185-0.164,0.311-0.362,0.38-0.596c0.068-0.232,0.099-0.47,0.091-0.714s-0.051-0.491-0.129-0.74
				c-0.079-0.249-0.173-0.473-0.284-0.67c-0.022-0.049-0.012-0.088,0.031-0.114c0.043-0.026,0.081-0.021,0.115,0.018
				c0.417,0.517,0.84,1.029,1.271,1.535c0.43,0.506,0.859,1,1.291,1.482l2.107,2.361c0.51,0.571,0.922,1.132,1.238,1.684
				s0.495,1.099,0.538,1.643s-0.059,1.085-0.306,1.625c-0.248,0.539-0.685,1.09-1.312,1.649
				C228.214,157.146,227.594,157.516,226.896,157.773z"/>
			
				<path fill="#FFFFFF" stroke="#FFFFFF" stroke-width="0.5" stroke-linecap="round" stroke-linejoin="round" stroke-miterlimit="10" d="
				M228.793,172.426c-0.152-0.149-0.313-0.308-0.484-0.475c-0.094-0.101-0.192-0.2-0.297-0.3c-0.105-0.101-0.216-0.2-0.333-0.299
				c-0.299-0.252-0.609-0.493-0.928-0.721c-0.321-0.228-0.641-0.456-0.96-0.684c-0.039-0.033-0.049-0.073-0.03-0.123
				c0.019-0.048,0.059-0.068,0.119-0.062l1.063,0.285c0.279-0.778,0.542-1.555,0.786-2.331c0.244-0.776,0.512-1.56,0.802-2.35
				l-3.02-2.558c-0.204,0.108-0.503,0.271-0.898,0.487s-0.797,0.448-1.208,0.695c-0.41,0.247-0.791,0.485-1.142,0.717
				c-0.353,0.231-0.587,0.416-0.704,0.555c-0.16,0.188-0.179,0.383-0.059,0.582s0.249,0.378,0.383,0.535l-0.128,0.151
				c-0.226-0.234-0.46-0.471-0.704-0.71c-0.244-0.238-0.495-0.468-0.755-0.688c-0.26-0.22-0.527-0.43-0.803-0.631
				c-0.276-0.201-0.554-0.399-0.835-0.594c-0.05-0.021-0.056-0.059-0.021-0.115c0.036-0.056,0.079-0.073,0.129-0.053
				c0.789,0.517,1.598,0.576,2.427,0.176l-0.016,0.019c1.154-0.599,2.295-1.209,3.424-1.831c1.127-0.621,2.254-1.255,3.381-1.899
				c0.767-0.431,1.524-0.865,2.272-1.301s1.511-0.863,2.291-1.283c0.045-0.027,0.087-0.024,0.126,0.009s0.049,0.073,0.03,0.122
				c-0.084,0.231-0.163,0.462-0.235,0.692c-0.072,0.23-0.151,0.461-0.234,0.692c-0.661,1.859-1.304,3.745-1.93,5.656
				c-0.626,1.91-1.144,3.858-1.554,5.845c-0.089,0.422-0.067,0.797,0.067,1.126c0.134,0.328,0.346,0.638,0.636,0.927l-0.128,0.151
				C229.122,172.716,228.945,172.576,228.793,172.426z M230.882,159.55c-0.786,0.479-1.548,0.952-2.287,1.417
				c-0.739,0.465-1.521,0.933-2.342,1.402l2.513,2.129L230.882,159.55z"/>
			
				<path fill="#FFFFFF" stroke="#FFFFFF" stroke-width="0.5" stroke-linecap="round" stroke-linejoin="round" stroke-miterlimit="10" d="
				M243.087,181.116c-0.312-0.087-0.602-0.204-0.87-0.352c-0.447-0.247-0.806-0.548-1.076-0.904
				c-0.271-0.355-0.479-0.734-0.627-1.136c-0.148-0.402-0.257-0.829-0.328-1.282c-0.071-0.453-0.127-0.907-0.167-1.363
				c-0.042-0.418-0.097-0.839-0.164-1.262c-0.068-0.423-0.174-0.83-0.318-1.221c-0.145-0.39-0.337-0.745-0.578-1.066
				c-0.241-0.321-0.563-0.593-0.965-0.814c-0.12-0.065-0.239-0.131-0.357-0.197c-0.105-0.058-0.225-0.104-0.359-0.142l-1.696,3.074
				c-0.23,0.419-0.297,0.849-0.199,1.288c0.097,0.44,0.35,0.8,0.759,1.082l-0.096,0.173c-0.327-0.217-0.652-0.43-0.976-0.636
				c-0.323-0.207-0.657-0.405-0.999-0.594c-0.343-0.189-0.682-0.357-1.019-0.505s-0.688-0.295-1.054-0.44
				c-0.053-0.01-0.076-0.047-0.071-0.11c0.005-0.062,0.038-0.096,0.099-0.1c0.393,0.027,0.772-0.045,1.14-0.219
				c0.368-0.174,0.644-0.426,0.827-0.759l4.764-8.64c0.183-0.332,0.221-0.691,0.115-1.08s-0.307-0.721-0.603-0.996
				c-0.037-0.038-0.038-0.082-0.002-0.128c0.035-0.047,0.075-0.058,0.12-0.033l4.404,2.429c0.462,0.254,0.887,0.56,1.274,0.914
				c0.387,0.355,0.688,0.742,0.904,1.162c0.215,0.42,0.324,0.875,0.326,1.365c0.001,0.49-0.141,0.996-0.427,1.516
				c-0.382,0.692-0.942,1.24-1.679,1.644c-0.737,0.402-1.475,0.693-2.213,0.869c0.068,0.264,0.125,0.582,0.172,0.956
				c0.047,0.374,0.103,0.768,0.167,1.18c0.089,0.613,0.19,1.248,0.305,1.904c0.114,0.656,0.271,1.279,0.471,1.869
				s0.457,1.108,0.774,1.557c0.316,0.447,0.714,0.766,1.194,0.954l-0.029,0.211C243.712,181.26,243.398,181.204,243.087,181.116z
				 M243.292,168.849c0.095-0.438,0.115-0.869,0.058-1.295c-0.056-0.428-0.195-0.828-0.415-1.204
				c-0.221-0.375-0.547-0.683-0.979-0.92c-0.179-0.099-0.364-0.188-0.554-0.264c-0.191-0.077-0.389-0.125-0.592-0.144l-2.973,5.392
				c0.23,0.184,0.459,0.349,0.69,0.494c0.23,0.146,0.472,0.288,0.726,0.429c0.834,0.46,1.533,0.558,2.097,0.295
				c0.563-0.265,1.06-0.785,1.489-1.565C243.046,169.691,243.197,169.285,243.292,168.849z"/>
			
				<path fill="#FFFFFF" stroke="#FFFFFF" stroke-width="0.5" stroke-linecap="round" stroke-linejoin="round" stroke-miterlimit="10" d="
				M259.498,186.49c-0.199-0.079-0.409-0.163-0.631-0.25c-0.125-0.057-0.255-0.111-0.391-0.162c-0.136-0.051-0.276-0.1-0.423-0.146
				c-0.374-0.118-0.751-0.219-1.135-0.305c-0.383-0.087-0.766-0.172-1.15-0.258c-0.048-0.016-0.074-0.05-0.075-0.102
				c-0.001-0.053,0.026-0.087,0.085-0.103l1.091-0.149c-0.044-0.826-0.104-1.645-0.179-2.454s-0.132-1.636-0.171-2.478l-3.774-1.187
				c-0.146,0.18-0.358,0.445-0.638,0.798c-0.281,0.353-0.562,0.723-0.844,1.108c-0.282,0.387-0.541,0.756-0.775,1.104
				c-0.234,0.35-0.379,0.611-0.433,0.784c-0.075,0.236-0.017,0.423,0.171,0.56c0.189,0.137,0.375,0.252,0.561,0.345l-0.059,0.188
				c-0.299-0.129-0.607-0.255-0.924-0.381c-0.318-0.126-0.639-0.239-0.963-0.342c-0.325-0.103-0.654-0.192-0.985-0.271
				c-0.333-0.078-0.666-0.153-1-0.224c-0.054,0.001-0.075-0.032-0.063-0.098c0.011-0.065,0.044-0.099,0.098-0.099
				c0.927,0.17,1.696-0.089,2.305-0.779l-0.007,0.023c0.832-0.999,1.647-2.005,2.446-3.016c0.799-1.01,1.592-2.03,2.381-3.062
				c0.54-0.694,1.069-1.388,1.59-2.08c0.52-0.691,1.058-1.382,1.615-2.071c0.03-0.042,0.07-0.056,0.12-0.04
				c0.048,0.016,0.073,0.049,0.075,0.102c0.012,0.245,0.03,0.488,0.052,0.729c0.022,0.239,0.04,0.483,0.052,0.729
				c0.112,1.971,0.25,3.958,0.414,5.962c0.164,2.005,0.441,4.001,0.833,5.99c0.081,0.424,0.247,0.761,0.498,1.012
				c0.251,0.252,0.566,0.455,0.946,0.608l-0.06,0.189C259.912,186.63,259.695,186.569,259.498,186.49z M256.431,173.811
				c-0.539,0.747-1.058,1.479-1.559,2.193c-0.501,0.715-1.04,1.448-1.615,2.2l3.142,0.988L256.431,173.811z"/>
			
				<path fill="#EF7D18" stroke="#EF7D18" stroke-width="0.5" stroke-linecap="round" stroke-linejoin="round" stroke-miterlimit="10" d="
				M290.156,189.822c-0.597-0.013-1.185-0.017-1.764-0.013c-0.578,0.004-1.165,0.017-1.761,0.037
				c-0.443,0.016-0.894,0.035-1.352,0.06c-0.459,0.025-0.909,0.053-1.352,0.084c-0.051,0.002-0.081-0.025-0.092-0.083
				c-0.011-0.057,0.009-0.095,0.06-0.113c0.084-0.035,0.168-0.063,0.253-0.083c0.084-0.02,0.169-0.03,0.255-0.034
				c0.22-0.007,0.404-0.101,0.552-0.279c0.146-0.179,0.263-0.393,0.348-0.643c0.084-0.251,0.14-0.504,0.165-0.761
				c0.024-0.256,0.033-0.475,0.028-0.656l-0.247-7.019l-10.715,0.376l0.249,7.067c0.026,0.759,0.238,1.32,0.634,1.685
				c0.396,0.366,0.969,0.568,1.72,0.608c0.051-0.002,0.078,0.03,0.081,0.096c0.002,0.066-0.022,0.1-0.074,0.102
				c-0.34,0.012-0.688,0.023-1.046,0.037c-0.357,0.013-0.714,0.034-1.07,0.062c-0.255,0.009-0.549,0.023-0.88,0.044
				c-0.332,0.021-0.625,0.034-0.88,0.043c-0.29,0.011-0.579,0.021-0.867,0.03c-0.29,0.01-0.587,0.013-0.894,0.007
				c-0.085,0.003-0.191,0.003-0.32-0.001c-0.128-0.004-0.234-0.004-0.319-0.002c-0.051,0.002-0.082-0.025-0.092-0.083
				c-0.011-0.058,0.009-0.096,0.06-0.114c0.389-0.079,0.697-0.168,0.923-0.267c0.226-0.099,0.396-0.22,0.511-0.364
				c0.113-0.145,0.184-0.332,0.209-0.564c0.026-0.231,0.033-0.536,0.019-0.916l-0.5-14.234c-0.018-0.51-0.24-0.886-0.666-1.126
				c-0.426-0.241-0.877-0.361-1.354-0.361l-0.007-0.198c0.528,0.015,1.048,0.025,1.56,0.032c0.511,0.007,1.021,0.001,1.532-0.017
				c0.391-0.015,0.782-0.031,1.173-0.054c0.391-0.021,0.781-0.048,1.172-0.078c0.084-0.003,0.178-0.01,0.279-0.022
				c0.103-0.012,0.195-0.019,0.281-0.021c0.051-0.002,0.077,0.03,0.08,0.097c0.002,0.065-0.021,0.1-0.073,0.101
				c-0.459,0.033-0.854,0.184-1.185,0.45c-0.332,0.268-0.489,0.632-0.472,1.093l0.205,5.856l10.69-0.375l-0.201-5.733
				c-0.01-0.279-0.056-0.501-0.139-0.663c-0.082-0.162-0.197-0.29-0.346-0.384c-0.148-0.093-0.316-0.162-0.506-0.204
				c-0.188-0.043-0.386-0.095-0.593-0.153l-0.515-0.131c-0.052-0.014-0.075-0.05-0.068-0.108c0.007-0.058,0.035-0.088,0.087-0.089
				c0.545,0.014,1.099,0.022,1.661,0.028c0.563,0.005,1.115-0.002,1.659-0.021c0.884-0.031,1.785-0.087,2.702-0.169
				c0.051-0.002,0.081,0.026,0.092,0.083c0.011,0.058-0.009,0.096-0.06,0.113c-0.508,0.117-0.915,0.268-1.224,0.452
				c-0.309,0.184-0.452,0.564-0.432,1.141l0.481,13.715c0.027,0.791,0.227,1.37,0.597,1.736c0.371,0.366,0.958,0.602,1.762,0.704
				L290.156,189.822z"/>
			
				<path fill="#EF7D18" stroke="#EF7D18" stroke-width="0.5" stroke-linecap="round" stroke-linejoin="round" stroke-miterlimit="10" d="
				M306.467,182.826c-0.207,0.051-0.427,0.105-0.658,0.163c-0.135,0.026-0.271,0.059-0.412,0.095
				c-0.141,0.037-0.282,0.08-0.429,0.127c-0.372,0.121-0.739,0.258-1.101,0.411c-0.363,0.153-0.725,0.306-1.087,0.458
				c-0.048,0.016-0.088,0.002-0.119-0.039c-0.032-0.042-0.028-0.086,0.01-0.134l0.801-0.755c-0.515-0.646-1.038-1.278-1.569-1.894
				c-0.533-0.616-1.059-1.255-1.578-1.918l-3.763,1.227c-0.015,0.23-0.034,0.569-0.057,1.02c-0.023,0.45-0.038,0.914-0.043,1.393
				c-0.006,0.479-0.002,0.929,0.01,1.35c0.013,0.42,0.046,0.717,0.103,0.889c0.076,0.236,0.231,0.354,0.465,0.356
				s0.452-0.013,0.656-0.045l0.062,0.188c-0.317,0.069-0.642,0.145-0.974,0.227s-0.659,0.175-0.982,0.28
				c-0.323,0.106-0.644,0.224-0.959,0.353c-0.316,0.129-0.631,0.262-0.944,0.398c-0.044,0.031-0.079,0.018-0.107-0.043
				c-0.028-0.06-0.021-0.105,0.022-0.138c0.854-0.398,1.328-1.057,1.424-1.973l0.008,0.023c0.097-1.297,0.177-2.588,0.24-3.875
				c0.064-1.286,0.117-2.578,0.16-3.875c0.036-0.879,0.064-1.75,0.087-2.616c0.022-0.865,0.06-1.74,0.112-2.624
				c0-0.052,0.025-0.087,0.074-0.103c0.048-0.016,0.088-0.003,0.12,0.039c0.152,0.193,0.307,0.381,0.465,0.563
				s0.313,0.371,0.466,0.563c1.235,1.539,2.502,3.077,3.799,4.613c1.298,1.537,2.684,3.001,4.157,4.394
				c0.312,0.297,0.643,0.476,0.993,0.534c0.35,0.06,0.725,0.041,1.123-0.054l0.062,0.188
				C306.886,182.698,306.675,182.776,306.467,182.826z M296.608,174.284c-0.004,0.921-0.003,1.817,0.004,2.69
				c0.008,0.874-0.005,1.783-0.036,2.729l3.131-1.02L296.608,174.284z"/>
			
				<path fill="#EF7D18" stroke="#EF7D18" stroke-width="0.5" stroke-linecap="round" stroke-linejoin="round" stroke-miterlimit="10" d="
				M318.406,174.562c0.109,0.395,0.169,0.788,0.18,1.182c0.016,0.028,0.002,0.056-0.042,0.081c-0.642,0.521-1.289,1.019-1.941,1.488
				c-0.651,0.472-1.331,0.91-2.039,1.318c-0.886,0.51-1.786,0.839-2.702,0.986c-0.917,0.147-1.797,0.121-2.638-0.079
				c-0.843-0.199-1.624-0.566-2.345-1.103c-0.722-0.536-1.329-1.232-1.822-2.09c-0.585-1.014-0.944-2.005-1.08-2.974
				s-0.066-1.888,0.208-2.759c0.273-0.872,0.739-1.683,1.397-2.432c0.658-0.751,1.496-1.419,2.514-2.005
				c0.413-0.238,0.826-0.448,1.242-0.63c0.416-0.183,0.831-0.355,1.248-0.52c0.32-0.127,0.63-0.253,0.931-0.379
				s0.599-0.255,0.896-0.389c0.06-0.033,0.105-0.021,0.139,0.035c0.258,0.518,0.499,1.039,0.726,1.565
				c0.224,0.526,0.436,1.047,0.634,1.561c0.01,0.052-0.007,0.09-0.052,0.115c-0.044,0.025-0.086,0.021-0.125-0.013
				c-0.346-0.429-0.735-0.756-1.17-0.981s-0.886-0.36-1.353-0.404c-0.468-0.045-0.946-0.007-1.437,0.113
				c-0.49,0.122-0.964,0.313-1.422,0.577c-0.767,0.441-1.396,0.961-1.886,1.558c-0.491,0.597-0.839,1.239-1.042,1.927
				c-0.202,0.688-0.251,1.404-0.144,2.152c0.105,0.746,0.373,1.492,0.801,2.235c0.453,0.785,1.03,1.455,1.733,2.012
				c0.704,0.556,1.473,0.963,2.311,1.223c0.837,0.26,1.706,0.354,2.607,0.281s1.772-0.35,2.613-0.834
				c0.472-0.272,0.852-0.558,1.141-0.858c0.288-0.299,0.511-0.621,0.665-0.968c0.154-0.346,0.244-0.726,0.271-1.14
				c0.025-0.416,0.016-0.885-0.032-1.41c0.005-0.06,0.03-0.092,0.075-0.101c0.045-0.006,0.087,0.008,0.126,0.042
				c0.064,0.077,0.125,0.157,0.182,0.238s0.114,0.172,0.172,0.272C318.145,173.801,318.297,174.169,318.406,174.562z"/>
			
				<path fill="#EF7D18" stroke="#EF7D18" stroke-width="0.5" stroke-linecap="round" stroke-linejoin="round" stroke-miterlimit="10" d="
				M326.82,167.692c0.191,0.302,0.391,0.614,0.599,0.935c0.032,0.038,0.022,0.08-0.029,0.124l-0.004,0.035
				c-0.071,0.126-0.14,0.217-0.204,0.271c-0.298,0.255-0.601,0.509-0.91,0.763c-0.31,0.253-0.613,0.508-0.91,0.761
				c-0.259,0.222-0.514,0.435-0.765,0.638c-0.252,0.204-0.506,0.416-0.765,0.638c-0.35,0.299-0.699,0.603-1.05,0.913
				s-0.694,0.621-1.033,0.933l-0.129-0.15c0.194-0.166,0.318-0.342,0.371-0.528c0.054-0.187,0.059-0.37,0.017-0.552
				c-0.043-0.18-0.121-0.356-0.235-0.53c-0.115-0.173-0.241-0.341-0.381-0.504l-6.685-7.819c-0.214-0.25-0.415-0.36-0.602-0.331
				c-0.188,0.03-0.373,0.081-0.559,0.152c-0.1,0.042-0.211,0.088-0.335,0.14c-0.123,0.052-0.264,0.091-0.421,0.116
				c-0.047-0.003-0.081-0.023-0.102-0.061c-0.02-0.036-0.011-0.071,0.028-0.104l5.53-4.728c0.03-0.069,0.066-0.139,0.108-0.207
				s0.078-0.137,0.108-0.207c0.044-0.08,0.097-0.082,0.162-0.008c0.239,0.36,0.45,0.705,0.634,1.037
				c0.183,0.331,0.364,0.669,0.547,1.012c0.019,0.049,0.003,0.09-0.048,0.122c-0.051,0.033-0.092,0.03-0.125-0.008
				c-0.4-0.416-0.802-0.571-1.203-0.466c-0.403,0.105-0.812,0.335-1.225,0.688l-1.533,1.311l3.293,3.854l2.251-1.924
				c0.064-0.055,0.133-0.146,0.204-0.272c0.071-0.126,0.143-0.252,0.214-0.378c0.078-0.197,0.172-0.375,0.282-0.534
				c0.043-0.08,0.098-0.083,0.162-0.008c0.115,0.161,0.238,0.339,0.368,0.53c0.131,0.192,0.247,0.374,0.351,0.547
				c0.102,0.173,0.217,0.347,0.343,0.52c0.127,0.174,0.241,0.348,0.344,0.52c0.032,0.038,0.037,0.077,0.016,0.116
				c-0.021,0.041-0.056,0.06-0.103,0.057c-0.119-0.007-0.214-0.034-0.287-0.081c-0.072-0.046-0.155-0.095-0.245-0.148
				c-0.09-0.053-0.18-0.105-0.271-0.158c-0.09-0.054-0.193-0.084-0.313-0.091c-0.117-0.007-0.277,0.048-0.479,0.166
				c-0.201,0.117-0.41,0.253-0.627,0.405c-0.216,0.153-0.421,0.313-0.615,0.479s-0.343,0.293-0.446,0.381l-0.582,0.498l3.31,3.872
				c0.431,0.109,0.884,0.085,1.363-0.075c0.479-0.16,0.886-0.384,1.223-0.672c0.452-0.387,0.738-0.831,0.857-1.334
				c0.118-0.503,0.048-1.012-0.213-1.526l0.187-0.095C326.441,167.066,326.629,167.39,326.82,167.692z"/>
			
				<path fill="#EF7D18" stroke="#EF7D18" stroke-width="0.5" stroke-linecap="round" stroke-linejoin="round" stroke-miterlimit="10" d="
				M338.379,156.694c-0.142,0.291-0.309,0.554-0.502,0.792c-0.323,0.396-0.684,0.694-1.082,0.896
				c-0.399,0.202-0.81,0.341-1.231,0.414c-0.421,0.074-0.861,0.104-1.32,0.093c-0.458-0.012-0.914-0.038-1.37-0.08
				c-0.418-0.034-0.842-0.056-1.271-0.064c-0.429-0.009-0.848,0.022-1.257,0.095c-0.411,0.072-0.795,0.197-1.153,0.377
				c-0.359,0.18-0.685,0.446-0.975,0.803c-0.086,0.105-0.172,0.211-0.258,0.317c-0.075,0.091-0.144,0.2-0.203,0.327l2.721,2.219
				c0.371,0.302,0.781,0.445,1.23,0.428c0.45-0.017,0.851-0.201,1.201-0.553l0.153,0.125c-0.273,0.283-0.54,0.564-0.802,0.845
				c-0.261,0.281-0.515,0.574-0.763,0.877c-0.247,0.305-0.474,0.607-0.679,0.912c-0.206,0.305-0.414,0.624-0.622,0.959
				c-0.02,0.05-0.06,0.066-0.121,0.05c-0.061-0.017-0.088-0.056-0.081-0.116c0.099-0.381,0.095-0.768-0.01-1.161
				c-0.105-0.393-0.305-0.709-0.599-0.949l-7.646-6.234c-0.294-0.24-0.642-0.343-1.043-0.308c-0.401,0.036-0.764,0.174-1.087,0.415
				c-0.045,0.029-0.088,0.022-0.127-0.021c-0.039-0.043-0.043-0.085-0.011-0.124l3.179-3.897c0.333-0.408,0.709-0.771,1.128-1.089
				c0.418-0.317,0.854-0.545,1.305-0.682c0.452-0.137,0.919-0.161,1.401-0.076c0.483,0.088,0.955,0.317,1.415,0.692
				c0.613,0.501,1.052,1.149,1.315,1.946c0.266,0.798,0.418,1.576,0.458,2.334c0.272-0.021,0.596-0.02,0.973,0.002
				c0.376,0.021,0.771,0.037,1.189,0.047c0.619,0.022,1.262,0.037,1.929,0.041c0.666,0.006,1.307-0.037,1.923-0.128
				c0.616-0.09,1.173-0.251,1.67-0.482s0.882-0.566,1.153-1.004l0.201,0.066C338.631,156.104,338.521,156.403,338.379,156.694z
				 M326.346,154.293c-0.412-0.172-0.834-0.269-1.264-0.29c-0.429-0.021-0.849,0.044-1.258,0.193
				c-0.409,0.148-0.77,0.416-1.081,0.798c-0.13,0.158-0.249,0.324-0.359,0.498s-0.192,0.359-0.246,0.557l4.771,3.892
				c0.221-0.193,0.424-0.39,0.609-0.591c0.185-0.2,0.368-0.412,0.551-0.637c0.603-0.738,0.824-1.409,0.666-2.011
				c-0.158-0.601-0.582-1.183-1.272-1.746C327.131,154.687,326.759,154.465,326.346,154.293z"/>
		</g>
	</g>
	<g>
		<g>
			<path fill="#FFFFFF" stroke="#FFFFFF" stroke-linecap="round" stroke-linejoin="round" stroke-miterlimit="10" d="M243.45,97.326
				c-0.084,0.01-0.178,0.026-0.283,0.047c-0.273,0.063-0.544,0.142-0.817,0.234c-0.272,0.095-0.523,0.258-0.753,0.488
				c-0.083,0.105-0.246,0.398-0.486,0.879c-0.242,0.483-0.529,1.1-0.865,1.854c-0.335,0.753-0.711,1.617-1.131,2.591
				c-0.418,0.974-0.859,2-1.32,3.078c-0.46,1.079-0.932,2.178-1.413,3.299c-0.481,1.12-0.941,2.204-1.381,3.25
				c-0.356,0.838-0.702,1.648-1.037,2.436c-0.335,0.784-0.643,1.518-0.927,2.199c-0.283,0.68-0.539,1.271-0.769,1.773
				c-0.23,0.503-0.409,0.89-0.534,1.162c-0.022,0.042-0.053,0.063-0.095,0.063c-0.043,0-0.083-0.021-0.125-0.063
				c-1.13-1.905-2.094-3.853-2.89-5.843c-0.796-1.989-1.561-3.999-2.293-6.03c-0.293-0.774-0.586-1.55-0.879-2.324
				c-0.293-0.775-0.586-1.54-0.88-2.293c-0.062-0.146-0.125-0.314-0.188-0.502c-0.063-0.189-0.125-0.366-0.189-0.534
				c-0.293-0.754-0.613-1.534-0.957-2.34c-0.346-0.805-0.708-1.513-1.085-2.12c-0.23-0.377-0.481-0.628-0.753-0.754
				c-0.272-0.125-0.565-0.231-0.879-0.314c-0.168-0.042-0.352-0.089-0.55-0.141c-0.199-0.052-0.435-0.162-0.706-0.33
				c-0.063-0.042-0.085-0.084-0.063-0.125c0.021-0.042,0.063-0.063,0.125-0.063c0.419,0.021,0.837,0.037,1.256,0.047
				c0.419,0.011,0.837,0.027,1.257,0.048c0.731,0.042,1.46,0.074,2.183,0.094c0.722,0.021,1.47,0.032,2.246,0.032h1.005
				c0.042,0,0.068,0.037,0.079,0.109c0.01,0.074-0.006,0.122-0.047,0.143c-0.105,0.021-0.251,0.058-0.44,0.109
				c-0.188,0.053-0.372,0.11-0.55,0.173c-0.177,0.063-0.334,0.142-0.47,0.236c-0.137,0.094-0.205,0.204-0.205,0.329
				c0,0.272,0.079,0.697,0.235,1.273c0.157,0.576,0.366,1.251,0.628,2.026c0.262,0.775,0.57,1.617,0.926,2.528
				c0.356,0.911,0.723,1.843,1.1,2.795c0.376,0.954,0.755,1.907,1.131,2.859c0.376,0.953,0.732,1.837,1.068,2.653
				c0.356,0.839,0.648,1.539,0.879,2.105c0.231,0.565,0.418,1.048,0.566,1.444c0.167-0.418,0.356-0.868,0.564-1.351
				c0.21-0.482,0.441-0.995,0.691-1.538c0.523-1.215,1.1-2.539,1.727-3.975c0.629-1.434,1.214-2.842,1.76-4.225
				c0.544-1.382,0.994-2.659,1.35-3.832c0.356-1.173,0.534-2.116,0.534-2.828c0-0.125-0.073-0.241-0.219-0.345
				c-0.146-0.104-0.314-0.194-0.502-0.267c-0.189-0.073-0.383-0.135-0.583-0.188c-0.199-0.052-0.35-0.089-0.455-0.11
				c-0.063-0.02-0.088-0.072-0.079-0.157c0.011-0.083,0.048-0.115,0.11-0.094c0.544,0.063,1.088,0.115,1.633,0.156
				c0.545,0.043,1.089,0.064,1.634,0.064c0.544,0,1.098-0.021,1.665-0.064c0.565-0.041,1.131-0.093,1.695-0.156l0.032,0.25
				C243.627,97.29,243.534,97.315,243.45,97.326z"/>
			<path fill="#FFFFFF" stroke="#FFFFFF" stroke-linecap="round" stroke-linejoin="round" stroke-miterlimit="10" d="
				M253.297,117.994c-0.389-0.011-0.78-0.017-1.179-0.017c-0.565,0-1.119,0.006-1.663,0.017c-0.545,0.011-1.1,0.026-1.665,0.047
				c-0.063,0-0.1-0.036-0.111-0.109c-0.01-0.073,0.016-0.12,0.079-0.143c0.523-0.188,0.905-0.475,1.146-0.863
				c0.241-0.387,0.361-0.853,0.361-1.398v-13.035c0-0.481-0.163-0.816-0.487-1.005c-0.325-0.188-0.706-0.314-1.146-0.377
				c-0.063-0.021-0.09-0.067-0.078-0.141c0.009-0.074,0.046-0.11,0.109-0.11c0.44,0.042,0.88,0.074,1.319,0.095
				c0.44,0.021,0.89,0.032,1.351,0.032c0.439,0,0.879-0.011,1.318-0.032c0.441-0.021,0.87-0.063,1.288-0.125
				c0.063-0.021,0.105,0.011,0.127,0.095c0.02,0.083,0,0.136-0.063,0.157c-0.46,0.104-0.833,0.231-1.115,0.377
				c-0.282,0.146-0.423,0.492-0.423,1.036v12.942c0,0.796,0.15,1.366,0.455,1.711c0.304,0.346,0.832,0.551,1.586,0.613v0.252
				C254.086,118.011,253.684,118.005,253.297,117.994z"/>
			<path fill="#FFFFFF" stroke="#FFFFFF" stroke-linecap="round" stroke-linejoin="round" stroke-miterlimit="10" d="
				M269.034,115.435c-0.389,0.607-0.881,1.126-1.478,1.555c-0.596,0.43-1.255,0.765-1.979,1.005
				c-0.722,0.241-1.407,0.361-2.056,0.361c-0.314,0-0.644-0.036-0.989-0.111c-0.346-0.072-0.66-0.192-0.942-0.36
				s-0.513-0.382-0.691-0.644c-0.178-0.262-0.267-0.592-0.267-0.989c0-0.252,0.025-0.502,0.079-0.754
				c0.052-0.252,0.1-0.492,0.142-0.723l0.158-0.755c0-0.063,0.041-0.093,0.124-0.093c0.083,0,0.126,0.03,0.126,0.093v0.472
				c0,0.439,0.094,0.827,0.282,1.162c0.188,0.336,0.429,0.624,0.722,0.864c0.293,0.241,0.634,0.419,1.021,0.534
				s0.78,0.173,1.178,0.173c0.377,0,0.764-0.063,1.162-0.188c0.398-0.126,0.759-0.309,1.083-0.55c0.325-0.24,0.591-0.534,0.802-0.88
				c0.208-0.346,0.314-0.727,0.314-1.146c0-0.398-0.095-0.791-0.283-1.179c-0.189-0.387-0.44-0.78-0.754-1.178
				c-0.313-0.397-0.67-0.795-1.067-1.193c-0.399-0.398-0.807-0.795-1.226-1.194c-0.439-0.418-0.88-0.842-1.319-1.271
				c-0.44-0.43-0.827-0.869-1.162-1.319c-0.335-0.451-0.608-0.906-0.818-1.367c-0.208-0.46-0.313-0.932-0.313-1.414
				c0-0.711,0.198-1.324,0.596-1.837c0.397-0.513,0.889-0.931,1.476-1.257c0.586-0.324,1.226-0.565,1.917-0.722
				c0.691-0.157,1.33-0.235,1.916-0.235c0.837,0,1.602,0.105,2.293,0.314c0.063,0.042,0.095,0.083,0.095,0.125
				c-0.084,1.026-0.21,2.084-0.377,3.172c-0.021,0.063-0.062,0.095-0.126,0.095c-0.062,0-0.104-0.033-0.124-0.095
				c-0.169-0.732-0.487-1.36-0.958-1.884c-0.472-0.523-1.095-0.786-1.869-0.786c-0.797,0-1.461,0.258-1.995,0.771
				c-0.534,0.514-0.801,1.167-0.801,1.962c0,0.42,0.089,0.807,0.267,1.163c0.178,0.356,0.409,0.703,0.691,1.037
				c0.282,0.335,0.613,0.665,0.99,0.989c0.377,0.325,0.764,0.654,1.161,0.99c0.441,0.355,0.875,0.728,1.304,1.114
				c0.428,0.389,0.811,0.796,1.146,1.226c0.335,0.43,0.607,0.885,0.816,1.365c0.208,0.483,0.314,1.006,0.314,1.57
				C269.614,114.156,269.42,114.826,269.034,115.435z"/>
			<path fill="#FFFFFF" stroke="#FFFFFF" stroke-linecap="round" stroke-linejoin="round" stroke-miterlimit="10" d="
				M280.498,117.994c-0.388-0.011-0.781-0.017-1.179-0.017c-0.564,0-1.119,0.006-1.664,0.017c-0.544,0.011-1.101,0.026-1.665,0.047
				c-0.063,0-0.101-0.036-0.109-0.109c-0.012-0.073,0.015-0.12,0.078-0.143c0.523-0.188,0.904-0.475,1.146-0.863
				c0.24-0.387,0.36-0.853,0.36-1.398v-13.035c0-0.481-0.161-0.816-0.486-1.005c-0.324-0.188-0.706-0.314-1.145-0.377
				c-0.065-0.021-0.09-0.067-0.08-0.141c0.011-0.074,0.047-0.11,0.11-0.11c0.44,0.042,0.88,0.074,1.32,0.095
				c0.439,0.021,0.889,0.032,1.351,0.032c0.439,0,0.879-0.011,1.318-0.032c0.441-0.021,0.869-0.063,1.288-0.125
				c0.063-0.021,0.105,0.011,0.126,0.095c0.021,0.083,0,0.136-0.063,0.157c-0.461,0.104-0.832,0.231-1.115,0.377
				c-0.282,0.146-0.424,0.492-0.424,1.036v12.942c0,0.796,0.151,1.366,0.456,1.711c0.303,0.346,0.831,0.551,1.586,0.613v0.252
				C281.287,118.011,280.885,118.005,280.498,117.994z"/>
			<path fill="#FFFFFF" stroke="#FFFFFF" stroke-linecap="round" stroke-linejoin="round" stroke-miterlimit="10" d="
				M305.061,113.282c-0.492,1.036-1.146,1.933-1.963,2.687s-1.765,1.34-2.843,1.758c-1.079,0.42-2.215,0.628-3.408,0.628
				c-0.984,0-2.005-0.239-3.063-0.722c-1.057-0.482-2.025-1.11-2.904-1.885c-0.881-0.773-1.608-1.654-2.185-2.639
				s-0.863-1.979-0.863-2.984c0-1.528,0.142-2.843,0.424-3.941c0.283-1.099,0.738-2.031,1.366-2.796
				c0.629-0.764,1.455-1.392,2.481-1.885c1.026-0.492,2.282-0.895,3.77-1.209l0.409-0.032c1.34-0.104,2.585,0.089,3.737,0.582
				c1.15,0.492,2.156,1.184,3.016,2.073c0.858,0.89,1.534,1.943,2.025,3.157c0.492,1.215,0.738,2.493,0.738,3.833
				C305.799,111.12,305.552,112.246,305.061,113.282z M303.239,106.796c-0.304-1.026-0.755-1.947-1.351-2.765
				c-0.597-0.816-1.33-1.476-2.199-1.978c-0.869-0.503-1.869-0.754-2.999-0.754c-1.068,0-2.016,0.194-2.844,0.581
				c-0.827,0.388-1.523,0.922-2.088,1.603c-0.566,0.68-1.001,1.466-1.304,2.356c-0.304,0.89-0.456,1.836-0.456,2.842
				c0,1.046,0.157,2.083,0.472,3.109c0.314,1.027,0.78,1.953,1.397,2.779c0.617,0.827,1.366,1.498,2.246,2.01
				c0.88,0.515,1.885,0.77,3.016,0.77c1.068,0,2.01-0.203,2.827-0.611c0.816-0.407,1.502-0.952,2.057-1.633s0.974-1.472,1.258-2.372
				c0.282-0.9,0.423-1.854,0.423-2.858C303.694,108.849,303.543,107.823,303.239,106.796z"/>
			<path fill="#FFFFFF" stroke="#FFFFFF" stroke-linecap="round" stroke-linejoin="round" stroke-miterlimit="10" d="
				M330.283,101.095c-0.011-0.01-0.036-0.005-0.079,0.016c-0.293,0.084-0.602,0.189-0.926,0.314
				c-0.325,0.125-0.487,0.345-0.487,0.659l0.032,7.57v1.288c0,1.216-0.021,2.413-0.063,3.596c-0.042,1.184-0.116,2.372-0.221,3.565
				c0,0.043-0.026,0.079-0.078,0.11c-0.054,0.03-0.1,0.027-0.142-0.016c-1.005-0.858-2.01-1.785-3.015-2.779
				c-1.006-0.994-1.996-2.011-2.969-3.048c-0.974-1.036-1.932-2.083-2.874-3.14c-0.942-1.058-1.843-2.09-2.701-3.095
				c-0.293-0.314-0.555-0.613-0.785-0.896c-0.23-0.282-0.493-0.581-0.785-0.895c-0.063,0.566-0.094,1.11-0.094,1.634
				c0,0.795,0.009,1.591,0.03,2.387c0.021,0.798,0.054,1.593,0.095,2.388c0.041,0.796,0.074,1.591,0.094,2.387
				c0.021,0.796,0.032,1.603,0.032,2.419c0,0.356,0.03,0.644,0.093,0.864c0.063,0.22,0.142,0.393,0.236,0.519
				c0.095,0.125,0.21,0.215,0.347,0.267c0.135,0.053,0.277,0.089,0.424,0.11c0.167,0.042,0.335,0.089,0.502,0.142
				c0.168,0.053,0.366,0.162,0.597,0.329c0.041,0.042,0.058,0.089,0.047,0.142c-0.01,0.053-0.047,0.079-0.109,0.079
				c-0.209-0.021-0.414-0.042-0.613-0.063c-0.198-0.021-0.402-0.042-0.611-0.063c-0.294-0.042-0.593-0.073-0.896-0.095
				c-0.304-0.021-0.603-0.031-0.896-0.031c-0.377,0-0.765,0.027-1.161,0.079c-0.398,0.052-0.797,0.109-1.194,0.173
				c-0.063,0.021-0.109,0-0.142-0.063c-0.03-0.063-0.025-0.115,0.016-0.157c0.168-0.146,0.32-0.261,0.456-0.346
				c0.136-0.083,0.267-0.157,0.393-0.219c0.252-0.126,0.477-0.299,0.676-0.519c0.198-0.22,0.298-0.57,0.298-1.053v-14.7l0.252-0.502
				c0.02-0.042,0.052-0.074,0.094-0.094c0.042-0.021,0.074-0.01,0.094,0.031c2.283,2.367,4.493,4.696,6.628,6.988
				c2.136,2.293,4.304,4.666,6.502,7.115v-0.095c0-0.963-0.005-1.916-0.016-2.857c-0.01-0.942-0.026-1.905-0.048-2.89
				c-0.021-0.9-0.042-1.858-0.062-2.875c-0.021-1.015-0.032-1.973-0.032-2.874c0-0.354-0.037-0.644-0.11-0.863
				s-0.172-0.387-0.298-0.502c-0.125-0.115-0.263-0.194-0.409-0.236c-0.146-0.042-0.293-0.073-0.438-0.095
				c-0.168-0.021-0.32-0.046-0.456-0.078s-0.257-0.1-0.361-0.204c-0.043-0.042-0.047-0.095-0.017-0.158
				c0.032-0.063,0.068-0.083,0.11-0.063c0.481,0.063,0.932,0.093,1.352,0.093c0.439,0,0.879,0,1.319,0
				c0.272,0,0.55-0.004,0.831-0.015c0.284-0.011,0.571-0.005,0.865,0.015c0.104,0,0.219,0.006,0.345,0.016
				c0.127,0.011,0.24,0.016,0.346,0.016l0.063,0.251C330.319,101.101,330.293,101.106,330.283,101.095z"/>
		</g>
		<g>
			<path fill="#FFFFFF" stroke="#FFFFFF" stroke-miterlimit="10" d="M301.877,92.377l-4.527,5.579l-0.2,0.06l-0.447-0.224
				l-0.047-0.194l2.355-5.206l2.404-0.433l0.2,0.045L301.877,92.377z"/>
		</g>
	</g>
</g>
</svg>
