<svg height="512" viewBox="0 0 60 60" width="512" xmlns="http://www.w3.org/2000/svg"><g id="Page-1" fill="none" fill-rule="evenodd"><g id="006---Edit-Email" fill-rule="nonzero"><path id="Shape" d="m58.06 20.83-22.51 18.92-2.55 2.14c-1.7261915 1.4800229-4.2738085 1.4800229-6 0l-2.55-2.14-22.51-18.92c.55354995-.5325674 1.29185573-.8300402 2.06-.83h27.52l-3.51 3.51-2.39 9.65c-.0851066.3427424.0155488.7050205.2652642.9547358.2497153.2497154.6119934.3503708.9547358.2652642l9.65-2.39 11.99-11.99h7.52c.7681443-.0000402 1.5064501.2974326 2.06.83z" fill="#e8edfc"/><path id="Shape" d="m56 20h-3c.7681443-.0000402 1.5064501.2974326 2.06.83l-22.51 18.92-2.55 2.14c-.4437549.3730046-.9521683.6614444-1.5.851 1.5446402.5362613 3.2578498.2122744 4.5-.851l2.55-2.14 22.51-18.92c-.5535499-.5325674-1.2918557-.8300402-2.06-.83z" fill="#cad9fc"/><path id="Shape" d="m57.93 58.29c-.5384372.4586387-1.2227066.7103648-1.93.71h-52c-.70729341.0003648-1.3915628-.2513613-1.93-.71l22.38-18.54 2.55 2.14c1.7261915 1.4800229 4.2738085 1.4800229 6 0l2.55-2.14z" fill="#a4c2f7"/><path id="Shape" d="m35.55 39.75-1.49 1.25 20.87 17.29c-.5384372.4586387-1.2227066.7103648-1.93.71h3c.7072934.0003648 1.3915628-.2513613 1.93-.71z" fill="#7facfa"/><path id="Shape" d="m24.45 39.75-22.38 18.54c-.67876645-.5667702-1.07076468-1.4057196-1.07-2.29v-33c-.00299064-.8227691.33776328-1.6094031.94-2.17z" fill="#e8edfc"/><path id="Shape" d="m59 23v33c.0007647.8842804-.3912335 1.7232298-1.07 2.29l-22.38-18.54 22.51-18.92c.6022367.5605969.9429906 1.3472309.94 2.17z" fill="#e8edfc"/><path id="Shape" d="m58.06 20.83-2.1 1.767c.0224748.1332684.0358391.2679138.04.403v33c-.0011539.2125904-.0249549.4244528-.071.632l2 1.658c.6791396-.5665784 1.0715173-1.4055559 1.071-2.29v-33c.0029906-.8227691-.3377633-1.6094031-.94-2.17z" fill="#cad9fc"/><path id="Rectangle-path" d="m47.225 4.789h4.002v11.993h-4.002z" fill="#a4c2f7" transform="matrix(.707 -.707 .707 .707 6.792 37.967)"/><path id="Shape" d="m46.4 5.13-1.5 1.5 6.98 6.98-1.33 1.33 1.5 1.5 2.83-2.83z" fill="#7facfa"/><path id="Shape" d="m31.95 33.11-5.11 1.27c-.3427424.0851066-.7050205-.0155488-.9547358-.2652642-.2497154-.2497153-.3503708-.6119934-.2652642-.9547358l1.27-5.11z" fill="#a4c2f7"/><path id="Shape" d="m36.49 31.99-4.54 1.12-5.06-5.06 1.12-4.54z" fill="#e8edfc"/><path id="Shape" d="m52.05 16.44-15.56 15.55-8.48-8.48 3.51-3.51 12.05-12.04z" fill="#e8edfc"/><path id="Shape" d="m43.57 7.96-1.501 1.499 6.981 6.981-14.06 14.05 1.5 1.5 15.56-15.55z" fill="#cad9fc"/><path id="Shape" d="m58.41 10.07-3.53 3.54-8.48-8.48 3.53-3.54c.3732815-.37902819.8830212-.5924538 1.415-.5924538s1.0417185.21342561 1.415.5924538l5.65 5.65c.3790282.37328148.5924538.88302121.5924538 1.415s-.2134256 1.04171852-.5924538 1.415z" fill="#e8edfc"/><path id="Shape" d="m58.41 7.24-5.65-5.65c-.3732815-.37902819-.8830212-.5924538-1.415-.5924538s-1.0417185.21342561-1.415.5924538l-.085.085 5.565 5.565c.3790282.37328148.5924538.88302121.5924538 1.415s-.2134256 1.04171852-.5924538 1.415l-2.032 2.038 1.5 1.5 3.53-3.54c.3786727-.37293869.5920635-.88209692.5924393-1.41358173.0003759-.5314848-.2122945-1.04094435-.5904393-1.41441827z" fill="#cad9fc"/><path id="Shape" d="m4 59h3c-1.6548028-.0049422-2.9950578-1.3451972-3-3v-33c.00603283-1.6543489 1.34565107-2.9939672 3-3h-3c-1.65434893.0060328-2.99396717 1.3456511-3 3v33c.0049422 1.6548028 1.3451972 2.9950578 3 3z" fill="#fff"/><path id="Shape" d="m52.845 1.675-.085-.085c-.3732815-.37902819-.8830212-.5924538-1.415-.5924538s-1.0417185.21342561-1.415.5924538c-4.598 4.61-18.309 18.31-18.41 18.41h3c.101-.1 13.65-13.64 18.325-18.325z" fill="#fff"/><path id="Rectangle-path" d="m0 48h2v8h-2z" fill="#fff"/><g fill="#428dff"><path id="Shape" d="m1.02 53c-.55228475.0027614-1.00223858-.4427153-1.005-.995s.44271525-1.0022386.995-1.005h.01c.55228475 0 1 .4477153 1 1s-.44771525 1-1 1z"/><path id="Shape" d="m56 19h-5.1l8.222-8.222c1.1711458-1.17149955 1.1711458-3.07050045 0-4.242l-5.657-5.657c-.5626237-.56271905-1.3257625-.87885933-2.1215-.87885933s-1.5588763.31614028-2.1215.87885933l-18.122 18.121h-27.1c-2.209139 0-4 1.790861-4 4v25c0 .5522847.44771525 1 1 1s1-.4477153 1-1v-25c.0016915-.2395441.04710269-.4767667.134-.7l20.757 17.443-20.68 17.133c-.13689309-.2718408-.20910559-.5716424-.211-.876 0-.5522847-.44771525-1-1-1s-1 .4477153-1 1c0 2.209139 1.790861 4 4 4h52c2.209139 0 4-1.790861 4-4v-33c0-2.209139-1.790861-4-4-4zm2 4v33c-.0018944.3043576-.0741069.6041592-.211.876l-20.68-17.133 20.757-17.443c.0868973.2232333.1323085.4604559.134.7zm-14.211.282-.027.027-7.268 7.268-2.829-2.829 14.143-14.142 2.828 2.829-2.847 2.847-.027.027zm1.19-15.332 1.415-1.415 7.071 7.071-1.415 1.415zm1.415 4.242-14.143 14.142-2.828-2.828 14.142-14.142zm-18.96 17.808 2.566 2.564-3.4.839zm4.83 2-4.264-4.265.56-2.269 5.979 5.979zm18.372-29.707c.1875683-.18777704.4420908-.29328666.7075-.29328666s.5199317.10550962.7075.29328666l5.656 5.657c.3903819.39049985.3903819 1.02350015 0 1.414l-2.828 2.828-7.071-7.071zm-21.536 18.707-1.8 1.8c-.0592235.0599535-.110631.1271528-.153.2h-14.147c-.5522847 0-1 .4477153-1 1s.4477153 1 1 1h13.61l-1.957 7.921c-.1494842.5967142-.0160522 1.2290231.361791 1.7144589.3778433.4854358.9580578.7699875 1.573209.7715411.1644926-.000223.3283526-.0203698.488-.06l9.657-2.385c.1765894-.0432568.3380449-.1338378.467-.262l7.7-7.7h2.1c.5522847 0 1-.4477153 1-1s-.4477153-1-1-1h-.1l2-2h7.1c.0905093.0028495.1807187.0118704.27.027l-23.914 20.1c-1.3541243 1.166389-3.3578757 1.166389-4.712 0l-23.914-20.1c.08928127-.0151296.17949072-.0241505.27-.027zm-25.1 37h-.011l20.458-16.949 1.909 1.6c2.0941643 1.804702 5.1938357 1.804702 7.288 0l1.909-1.6 20.458 16.949z"/><path id="Shape" d="m6 48v-16c0-.5522847-.44771525-1-1-1s-1 .4477153-1 1v16c0 .5522847.44771525 1 1 1s1-.4477153 1-1z"/><path id="Shape" d="m55 49c.5522847 0 1-.4477153 1-1v-16c0-.5522847-.4477153-1-1-1s-1 .4477153-1 1v16c0 .5522847.4477153 1 1 1z"/></g></g></g></svg>