<svg height="440pt" viewBox="-36 0 440 440.953" width="440pt" xmlns="http://www.w3.org/2000/svg"><path d="m196.367188 80.785156c6.515624 6.511719 15.378906 10.128906 24.589843 10.046875l48.058594-.230469-83.164063-82.195312.230469 47.886719c.019531 9.210937 3.722657 18.03125 10.285157 24.492187zm0 0"/><path d="m200.371094 390.421875-16.839844 50.53125 50.527344-16.84375-16.839844-16.84375zm0 0"/><path d="m12.203125 359.929688c6.523437 6.503906 15.378906 10.125 24.589844 10.046874l162.625-.808593 78.722656-78.722657-.777344-187.882812-56.347656.269531h-.230469c-25.703125-.003906-46.574218-20.777343-46.699218-46.480469l-.269532-56.351562-138.796875.667969c-19.167969.089843-34.632812 15.703125-34.542969 34.875l1.441407 299.894531c.019531 9.207031 3.722656 18.027344 10.285156 24.492188zm141.59375-138.421876h-20.347656c-3.316407 0-6-2.6875-6-6 0-3.316406 2.683593-6 6-6h20.347656c3.3125 0 6 2.683594 6 6 0 3.3125-2.6875 6-6 6zm-98.792969-62.886718h168.941406c3.3125 0 6 2.6875 6 6s-2.6875 6-6 6h-168.941406c-3.3125 0-6-2.6875-6-6s2.6875-6 6-6zm0 50.886718h52.660156c3.3125 0 6 2.683594 6 6 0 3.3125-2.6875 6-6 6h-52.660156c-3.3125 0-6-2.6875-6-6 0-3.316406 2.6875-6 6-6zm0 0"/><path d="m225.703125 398.78125 19.464844 19.464844 98.199219-98.199219-38.929688-38.929687-98.199219 98.199218zm0 0"/><path d="m312.921875 272.628906 17.59375-17.59375 38.929687 38.929688-17.59375 17.59375zm0 0"/></svg>